<svg xmlns="http://www.w3.org/2000/svg" width="690.032" height="165" viewBox="0 0 690.032 165">
  <metadata><?xpacket begin="﻿" id="W5M0MpCehiHzreSzNTczkc9d"?>
<x:xmpmeta xmlns:x="adobe:ns:meta/" x:xmptk="Adobe XMP Core 5.6-c138 79.159824, 2016/09/14-01:09:01        ">
   <rdf:RDF xmlns:rdf="http://www.w3.org/1999/02/22-rdf-syntax-ns#">
      <rdf:Description rdf:about=""/>
   </rdf:RDF>
</x:xmpmeta>
                                                                                                    
                                                                                                    
                                                                                                    
                                                                                                    
                                                                                                    
                                                                                                    
                                                                                                    
                                                                                                    
                                                                                                    
                                                                                                    
                                                                                                    
                                                                                                    
                                                                                                    
                                                                                                    
                                                                                                    
                                                                                                    
                                                                                                    
                                                                                                    
                                                                                                    
                                                                                                    
                           
<?xpacket end="w"?></metadata>
<defs>
    <style>
      .cls-1 {
        fill: #fff;
        fill-rule: evenodd;
      }
    </style>
  </defs>
  <path id="Form_4" data-name="Form 4" class="cls-1" d="M735.176,10641.3c0.341-2.1.6-4.3,0.767-6.5-27.73-14.2-66.423-13-66.423-13,32.755-6.5,56.4-3,66.314-.8a82.713,82.713,0,0,0-102.133-72.6c12.942,0.2,51.127,4.1,68.645,43a156.647,156.647,0,0,0-30.244-9.3c-1.583,9.8-6.481,14-6.481,14,6.193-11.3,2.91-24.8-.048-23.9-14,4.2-9.028,2.6-19.4,4.9-18.679,4.1-29.308,12.8-29.308,12.8l2.131-5.6c-4.051.4-13.685,11.3-13.685,11.3l1.213-6.3c-6.221,7-10.337,20.9-11.084,22.4s-12.182,11.4-11.46,15c0.585,2.9,9.1,1.1,9.1,1.1a8.177,8.177,0,0,1-.213,1.5c-0.746,1.6-4.106.3-6.1,1.3-1.988.9-2.019,1.7-.3,8.7,1.718,7.1,7.106,5.9,7.106,5.9,1.371,5.9,9.084,9.9,9.084,9.9-5.206-10.3,2.115-14.2,2.115-14.2,2.121,5.7,8.321,7.8,8.321,7.8-4.478-9.4-6.017-13.6-2.239-16.4,7.955-5.8,10.163-7.5,21.1,2.4,10.939,10-8.879,16.4-8.879,16.4-2.2-.4-8.354-7.5-8.354-7.5,0.139,3.8,2.265,9.5,2.265,9.5-6.818-.4-12.578-6.1-12.578-6.1s-0.025,3.8,4.2,15.1c5.246,14.1,18.4,1.5,18.4,1.5,14.422-9.9,25.565-8.8,25.565-8.8,9.4,2.6,19.173,34.8,19.173,34.8s-34.383,22.3-74.638-1a82.555,82.555,0,0,0,129.7-21.9,167.271,167.271,0,0,0-37.931-16c7.71-.8,29.525,3.6,41.77,7.5,0.611-1.6,1.18-3.2,1.691-4.8-25.483-14.5-53.683-17.6-53.683-17.6C700.357,10634.9,724.511,10639.2,735.176,10641.3Zm-126.9-31.8-7.432,1.8s0.747-6.3,11.925-8.2Zm315.569-1.9a0.756,0.756,0,0,1,.153.6c-0.212,1.2-.416,2.4-0.625,3.6a0.669,0.669,0,0,1-.733.7H851.506a0.657,0.657,0,0,1-.729-0.9q1.486-8.55,2.976-17.1a0.649,0.649,0,0,1,.731-0.6h58.082a0.686,0.686,0,0,1,.58.3C916.713,10598.7,920.276,10603.1,923.844,10607.6Zm89.216-13.7H956.933a0.814,0.814,0,0,0-.457.2c-5.829,4.5-11.655,9.1-17.483,13.6a0.729,0.729,0,0,0-.272.5c-0.209,1.1-.426,2.2-0.635,3.4a0.655,0.655,0,0,0,.73.9h71.244a0.672,0.672,0,0,0,.73-0.7c1-5.6,2-11.3,3-17A0.656,0.656,0,0,0,1013.06,10593.9Zm78.3,50.6h-51.6a0.656,0.656,0,0,1-.73-0.9c1.1-6.3,2.19-12.6,3.3-18.8a0.651,0.651,0,0,0-.71-0.9c-5.91-.2-11.82-0.5-17.73-0.7a0.671,0.671,0,0,0-.76.6l-4.82,27.4a0.753,0.753,0,0,0,.14.6c2.78,3.6,5.55,7.3,8.32,10.9a0.525,0.525,0,0,0,.59.3h60.99a0.6,0.6,0,0,0,.74-0.6c1-5.7,2.01-11.3,3.01-17A0.661,0.661,0,0,0,1091.36,10644.5ZM921.2,10619.3l-17.137-.6a0.617,0.617,0,0,0-.762.6q-2.175,12.3-4.355,24.6a0.652,0.652,0,0,1-.731.6H865.213a0.654,0.654,0,0,1-.728-0.9c1.5-8.4,3-16.9,4.5-25.4,0.1-.6-0.119-0.8-0.7-0.9l-17.74-.6c-0.464-.1-0.678.1-0.758,0.6q-3.043,17.25-6.079,34.5a0.762,0.762,0,0,0,.136.6c2.651,3.4,5.292,6.9,7.943,10.3a0.526,0.526,0,0,0,.592.3h61.309a0.593,0.593,0,0,0,.729-0.6c2.5-14,4.993-28.1,7.49-42.2A0.67,0.67,0,0,0,921.2,10619.3Zm-95.019-25.1a0.7,0.7,0,0,0-.591-0.3H767.2a0.647,0.647,0,0,0-.731.6c-3.989,22.6-7.981,45.1-11.967,67.7-0.105.6,0.13,0.8,0.732,0.8h17.282a0.6,0.6,0,0,0,.733-0.6c1.4-7.9,2.8-15.9,4.2-23.8a0.645,0.645,0,0,1,.731-0.6h10.447a0.63,0.63,0,0,1,.637.4q7.311,12.15,14.616,24.3a0.716,0.716,0,0,0,.635.3h20.032c0.761,0,1.03-.4.636-1.1q-6.891-11.4-13.785-22.8c-0.391-.6-0.126-1.1.633-1.1H830.8a0.651,0.651,0,0,0,.731-0.6c1.2-6.8,2.411-13.7,3.62-20.5a0.606,0.606,0,0,0-.7-0.8c-5.617-.2-11.238-0.5-16.857-0.7a0.671,0.671,0,0,0-.757.6q-0.635,3.6-1.267,7.2a0.647,0.647,0,0,1-.731.6H780.937a0.659,0.659,0,0,1-.732-0.9c0.567-3.3,1.13-6.5,1.693-9.8a0.6,0.6,0,0,1,.732-0.6h52.684a0.65,0.65,0,0,0,.731-0.6l0.658-3.7a0.718,0.718,0,0,0-.146-0.6C833.1,10603.1,829.64,10598.7,826.185,10594.2Zm177.955,50.3h-51.6a0.656,0.656,0,0,1-.733-0.9c1.3-7.3,2.6-14.7,3.912-22.1,0.1-.6-0.122-0.8-0.707-0.9l-17.715-.6a0.578,0.578,0,0,0-.765.6q-2.718,15.3-5.444,30.6a0.768,0.768,0,0,0,.139.6c2.773,3.6,5.547,7.3,8.323,10.9a0.52,0.52,0,0,0,.589.3h60.994a0.6,0.6,0,0,0,.73-0.6c1.01-5.7,2-11.3,3.01-17A0.658,0.658,0,0,0,1004.14,10644.5Zm251.03,7h-4.13l-1.71,8.1h2.03l0.51-2.4h1.81c0.62,0,.85.2,0.85,0.6a2.151,2.151,0,0,1-.06.5l-0.28,1.3h2.05l0.36-1.7a2.171,2.171,0,0,0,.08-0.5,1.071,1.071,0,0,0-1-1.1,1.74,1.74,0,0,0,1.41-1,6.362,6.362,0,0,0,.55-2.3C1257.64,10652,1256.9,10651.5,1255.17,10651.5Zm0.02,3.5a0.937,0.937,0,0,1-1.08.5h-1.88l0.49-2.3h1.89c0.67,0,.86.1,0.86,0.6A5.98,5.98,0,0,1,1255.19,10655Zm-15.26-23.5c-5.71-.2-11.42-0.5-17.13-0.7a0.671,0.671,0,0,0-.76.6c-1.8,10.3-3.61,20.5-5.42,30.8-0.1.6,0.13,0.8,0.74,0.8h17.28a0.6,0.6,0,0,0,.74-0.6c1.75-10,3.5-20,5.26-30.1A0.608,0.608,0,0,0,1239.93,10631.5Zm33.3-37.6h-70.85a0.635,0.635,0,0,0-.72.6q-1.515,8.55-3.01,17.1a0.653,0.653,0,0,0,.73.9h70.85a0.667,0.667,0,0,0,.73-0.7c1-5.6,2-11.3,3.01-17A0.661,0.661,0,0,0,1273.23,10593.9Zm-172.94,0h-56.13a0.8,0.8,0,0,0-.46.2c-5.84,4.5-11.68,9.1-17.52,13.6a0.741,0.741,0,0,0-.28.5c-0.2,1.1-.4,2.2-0.6,3.4a0.658,0.658,0,0,0,.73.9h71.25a0.662,0.662,0,0,0,.73-0.7c1.01-5.6,2.01-11.3,3.01-17A0.656,0.656,0,0,0,1100.29,10593.9Zm87.17,0h-56.45a0.828,0.828,0,0,0-.46.2c-5.83,4.5-11.66,9.1-17.49,13.6a0.731,0.731,0,0,0-.27.5c-0.21,1.1-.41,2.2-0.62,3.4a0.661,0.661,0,0,0,.74.9h71.54a0.667,0.667,0,0,0,.73-0.7c1-5.6,2-11.3,3.01-17A0.658,0.658,0,0,0,1187.46,10593.9Zm-6.21,35.3-71.05-2.7a0.671,0.671,0,0,0-.76.6q-3.09,17.55-6.19,35.1c-0.11.6,0.13,0.8,0.72,0.8h17.86a0.607,0.607,0,0,0,.74-0.6l3.36-19.2a0.6,0.6,0,0,1,.74-0.6h32.92c0.6,0,.84.2,0.73,0.8-1.11,6.3-2.21,12.5-3.32,18.8-0.11.6,0.12,0.8,0.73,0.8h17.79a0.6,0.6,0,0,0,.73-0.6c1.9-10.8,3.81-21.5,5.71-32.3A0.653,0.653,0,0,0,1181.25,10629.2Zm73.99,19c-4.77,0-9.21,4.3-9.21,8.9a5.721,5.721,0,0,0,5.92,5.9c4.73,0,9.15-4.3,9.15-8.9A5.707,5.707,0,0,0,1255.24,10648.2Zm-3.04,13.6a4.725,4.725,0,0,1-4.82-4.9,7.727,7.727,0,0,1,7.53-7.3,4.668,4.668,0,0,1,4.85,4.8A7.881,7.881,0,0,1,1252.2,10661.8Z" transform="translate(-583.938 -10546)"/>
</svg>
