<?xml version="1.0" encoding="utf-8"?>
<!-- Generator: Adobe Illustrator 15.0.2, SVG Export Plug-In . SVG Version: 6.00 Build 0)  -->
<!DOCTYPE svg PUBLIC "-//W3C//DTD SVG 1.1//EN" "http://www.w3.org/Graphics/SVG/1.1/DTD/svg11.dtd">
<svg version="1.1" id="Ebene_1" xmlns="http://www.w3.org/2000/svg" xmlns:xlink="http://www.w3.org/1999/xlink" x="0px" y="0px"
	 width="591.824px" height="133.229px" viewBox="0 0 591.824 133.229" enable-background="new 0 0 591.824 133.229"
	 xml:space="preserve">
<g>
	<path fill="#1A171B" d="M140.068,66.614c0,35.246-28.562,63.812-63.812,63.812c-35.25,0-63.81-28.565-63.81-63.812
		c0-35.238,28.561-63.812,63.81-63.812S140.068,31.375,140.068,66.614z"/>
	<g>
		<g>
			<path fill="#1A171B" d="M273.363,69.657c-0.256,1.31-0.387,2.872-0.387,4.435v32.327h-19.812V63.663
				c0-9.384-0.133-15.51-0.518-20.988h16.94l0.777,11.731h0.521c2.272-6.539,6.699-10.414,11.291-12.166
				C272.6,19.094,249.806,2.802,223.198,2.802c-35.25,0-63.816,28.572-63.816,63.812c0,35.246,28.566,63.812,63.816,63.812
				c35.242,0,63.811-28.565,63.811-63.812c0-2.361-0.138-4.69-0.388-6.985C279.49,59.736,274.653,63.615,273.363,69.657z
				 M226.846,106.418h-19.814l-23.205-63.744h21.51l8.604,29.589c1.565,5.474,2.606,10.425,3.649,15.516h0.394
				c1.041-5.218,2.082-10.042,3.52-15.516l8.213-29.589h20.851L226.846,106.418z"/>
		</g>
	</g>
	<path fill="#1A171B" d="M296.17,106.418V42.674h19.812v63.744H296.17z"/>
	<path fill="#1A171B" d="M373.207,104.717c-3.526,1.701-10.17,2.997-17.735,2.997c-20.597,0-33.752-12.635-33.752-32.582
		c0-18.638,12.772-33.894,36.493-33.894c5.218,0,10.943,0.914,15.121,2.477l-3.135,14.729c-2.338-1.04-5.855-1.949-11.072-1.949
		c-10.428,0-17.207,7.429-17.078,17.852c0,11.604,7.822,17.863,17.47,17.863c4.688,0,8.344-0.786,11.34-2.083L373.207,104.717z"/>
	<path fill="#1A171B" d="M401.863,25.469v17.204h14.209v14.603h-14.209V80.35c0,7.684,1.955,11.199,7.822,11.199
		c2.742,0,4.037-0.127,5.864-0.521l0.13,14.995c-2.479,0.914-7.302,1.688-12.773,1.688c-6.389,0-11.734-2.21-14.984-5.473
		c-3.653-3.772-5.481-9.904-5.481-18.895V57.276h-8.469V42.674h8.469V30.815L401.863,25.469z"/>
	<path fill="#1A171B" d="M421.012,106.418V42.674h19.819v63.744H421.012z"/>
	<path fill="#1A171B" d="M513.173,73.824c0,23.339-16.56,34.029-33.638,34.029c-18.641,0-32.975-12.254-32.975-32.849
		c0-20.727,13.561-33.894,34.143-33.894C500.132,41.112,513.173,54.54,513.173,73.824z M467.027,74.483
		c0,10.946,4.56,19.162,13.029,19.162c7.817,0,12.646-7.694,12.646-19.3c0-9.382-3.657-19.025-12.646-19.025
		C470.675,55.32,467.027,65.097,467.027,74.483z"/>
	<path fill="#1A171B" d="M518.898,63.009c0-7.948-0.266-14.597-0.521-20.335h17.205l0.901,8.863h0.396
		c2.612-4.171,9-10.299,19.68-10.299c13.039,0,22.818,8.736,22.818,27.504v37.676h-19.822V71.094
		c0-8.212-2.857-13.817-10.031-13.817c-5.471,0-8.734,3.777-10.172,7.428c-0.518,1.302-0.646,3.13-0.646,4.953v36.762h-19.809
		V63.009L518.898,63.009z"/>
</g>
</svg>
