<?xml version="1.0" encoding="utf-8"?>
<!-- Generator: Adobe Illustrator 21.1.0, SVG Export Plug-In . SVG Version: 6.00 Build 0)  -->
<svg version="1.1" id="Ebene_3" xmlns="http://www.w3.org/2000/svg" xmlns:xlink="http://www.w3.org/1999/xlink" x="0px" y="0px"
	 viewBox="0 0 1091.1 330.3" style="enable-background:new 0 0 1091.1 330.3;" xml:space="preserve">
<style type="text/css">
	.st0{clip-path:url(#SVGID_2_);}
	.st1{fill:#FFFFFF;}
	.st2{fill:#262626;}
</style>
<g>
	<g>
		<defs>
			<path id="SVGID_1_" d="M1124.8,37.1c7.9,127.5-206.5,244.5-478.9,261.4S146.4,225.8,138.5,98.3c-1.7-27,6.6-53.6,23.4-78.8
				c0,0,227.7,61.5,442.4,48.2C842.6,52.9,1112-8.8,1112-8.8C1119.4,5.8,1123.9,21.1,1124.8,37.1z"/>
		</defs>
		<clipPath id="SVGID_2_">
			<use xlink:href="#SVGID_1_"  style="overflow:visible;"/>
		</clipPath>
		<g class="st0">
			<g>
				<g>
					<path class="st1" d="M588.6,219.3c0,0,6.7,0.1,19.4,0.2c12.6,0.2,31.1,0.4,54.7,0.9c23.6,0.4,52.2,0.9,84.9,1.7
						c16.4,0.4,33.9,0.8,52.2,1.2c18.4,0.5,37.7,0.9,57.9,1.4c40.4,1,84.1,2.2,130.3,3.6c46.2,1.4,95,2.9,145.4,4.6
						c25.2,0.9,50.9,1.7,76.8,2.6c26,0.9,52.2,1.9,78.7,2.8c53,1.9,106.7,4.1,160.5,6.2c53.8,2.2,107.6,4.4,160.5,6.8
						c26.5,1.2,52.7,2.4,78.7,3.5c25.9,1.2,51.6,2.4,76.8,3.6c50.4,2.4,99.1,4.8,145.3,7.1c46.2,2.4,89.9,4.7,130.2,6.9
						c20.2,1.1,39.5,2.2,57.8,3.3c18.4,1.1,35.8,2.1,52.2,3.1c32.8,1.9,61.3,3.7,84.8,5.2c23.5,1.4,42,2.7,54.6,3.5
						c12.6,0.9,19.3,1.3,19.3,1.3s-6.7-0.1-19.4-0.2c-12.6-0.2-31.1-0.4-54.7-0.9c-23.6-0.4-52.2-0.9-85-1.7
						c-16.4-0.4-33.9-0.7-52.2-1.2c-18.4-0.5-37.7-0.9-57.9-1.4c-40.4-1-84.1-2.2-130.3-3.6c-46.2-1.4-95-2.9-145.4-4.6
						c-25.2-0.9-50.9-1.7-76.8-2.6c-26-0.9-52.2-1.9-78.7-2.8c-53-1.9-106.7-4.1-160.5-6.2c-53.8-2.2-107.6-4.4-160.5-6.8
						c-26.5-1.2-52.7-2.4-78.7-3.5c-25.9-1.2-51.6-2.4-76.8-3.6c-50.4-2.4-99.1-4.8-145.3-7.1c-46.2-2.4-89.9-4.7-130.2-6.9
						c-20.2-1.1-39.5-2.2-57.8-3.3c-18.4-1.1-35.8-2.1-52.2-3.1c-32.8-1.9-61.3-3.7-84.8-5.2c-23.5-1.4-42-2.7-54.6-3.5
						C595.3,219.7,588.6,219.3,588.6,219.3z"/>
				</g>
				<g>
					<path class="st2" d="M589.3,218.1c0,0,6.3,1.2,18,3.3c11.8,2.2,29,5.2,51,9.1c22,3.9,48.7,8.4,79.4,13.5
						c15.3,2.5,31.7,5.2,48.9,7.9s35.3,5.6,54.2,8.5c37.8,5.8,78.8,11.9,122.2,17.9s89.2,12,136.6,17.7c23.7,2.8,47.8,5.6,72.3,8.3
						c24.4,2.6,49.2,5.2,74.1,7.6c49.9,4.7,100.7,9,151.5,12.2c50.8,3.3,101.6,5.5,151.7,6.7c12.5,0.3,25,0.4,37.4,0.6
						c6.2,0,12.4,0.1,18.6,0.1s12.3,0,18.4,0c24.5-0.1,48.7-0.6,72.5-1.4c47.6-1.7,93.5-4.9,136.9-10.1c21.7-2.5,42.6-5.6,62.9-9
						c20.2-3.5,39.6-7.5,58.1-11.9c36.9-8.9,70.1-19.8,98.4-32.2c28.2-12.4,51.5-26.2,69.3-39.5c2.2-1.7,4.3-3.4,6.4-5
						c2.1-1.6,4-3.3,5.9-4.9c0.9-0.8,1.9-1.6,2.8-2.4c0.5-0.4,0.9-0.8,1.4-1.2c0.4-0.4,0.9-0.8,1.3-1.2c1.7-1.6,3.3-3.1,4.9-4.5
						c0.8-0.7,1.6-1.5,2.3-2.2s1.5-1.5,2.2-2.2c1.4-1.4,2.8-2.8,4-4.1c2.4-2.7,4.7-5.1,6.7-7.4c1.9-2.3,3.6-4.3,5-6.1
						s2.5-3.3,3.5-4.6c1.9-2.5,2.8-3.7,2.8-3.7s-0.9,1.3-2.6,3.9c-0.9,1.3-1.9,2.9-3.2,4.8c-1.4,1.8-2.9,4-4.7,6.4
						c-7.3,9.5-18.9,22.9-36.3,37.3c-8.7,7.2-18.7,14.5-30.2,21.8c-11.4,7.3-24.3,14.4-38.4,21.3c-14.1,6.8-29.5,13.4-46,19.4
						c-16.5,6.1-34.1,11.6-52.7,16.8c-37.2,10.2-78.2,18.3-121.8,24.5c-43.7,6.1-90,10.3-138,12.7c-24,1.2-48.4,2-73.1,2.4
						c-6.2,0.1-12.4,0.1-18.6,0.2c-6.2,0-12.4,0.1-18.7,0.1c-12.5,0-25-0.1-37.6-0.3c-50.4-0.7-101.5-2.9-152.6-6.2
						c-51-3.3-102-7.6-152.1-12.8c-25-2.5-49.8-5.3-74.3-8.3c-24.5-2.9-48.6-6-72.4-9.2c-95-12.8-183.2-27.5-258.5-41.5
						c-18.8-3.5-36.9-6.9-54-10.3s-33.4-6.7-48.6-9.8c-30.5-6.2-57-12.1-78.8-16.9c-21.8-4.8-38.9-9-50.5-11.7
						C595.5,219.7,589.3,218.1,589.3,218.1z"/>
				</g>
			</g>
			<g>
				<circle class="st1" cx="597" cy="213.1" r="19.5"/>
			</g>
		</g>
	</g>
</g>
<path class="st1" d="M146.9,142.4c0,10.6-3.3,19.3-9.7,26.3c-6.5,7-15,10.4-25.6,10.4c-6.7,0-4.6,0-14.4,0l-24.9-0.2l0.2-14.5h39.3
	c6.1,0,11-2.3,14.8-7s5.7-10,5.7-16.1v-7c0-6.2-1.8-11.4-5.5-15.6c-3.6-4.2-8.5-6.3-14.5-6.3H73.6c-5.9,0-10.9,2.1-15.1,6.2
	c-4.2,4.2-6.2,9.2-6.2,15.1v71.2H37.5v-69.6c0-10.3,3.4-19.1,10.3-26.5s15.5-11.1,25.7-11.1H112c10.3,0,18.7,3.2,25.2,9.5
	s9.7,14.7,9.7,24.9V142.4z"/>
<path class="st1" d="M283.9,166.3c0,10.3-3.4,19.2-10.3,26.6c-6.9,7.4-15.5,11.1-25.7,11.1h-38.4c-10.1,0-18.7-3.5-25.6-10.4
	c-7-7-10.4-15.5-10.4-25.7V97.5h14.7v70.4c0,5.9,2.1,10.9,6.2,15.1c4.2,4.2,9.2,6.2,15.1,6.2h38.4c5.9,0,10.9-2.1,15.1-6.2
	c4.2-4.2,6.2-9.2,6.2-15.1V97.5h14.7L283.9,166.3L283.9,166.3z"/>
<path class="st1" d="M428.4,112.2h-54.9V204h-14.7v-91.8h-54.9V97.5h124.5V112.2z"/>
<path class="st1" d="M568.7,112.2h-54.9V204h-14.7v-91.8h-54.9V97.5h124.5L568.7,112.2L568.7,112.2z"/>
<path class="st2" d="M732,97.5L675.1,204h-13.4L604.2,97.5h16.4l47.7,86.6l47.6-86.6C715.9,97.5,732,97.5,732,97.5z"/>
<path class="st2" d="M769.1,204h-14.7V95.7h14.7V204z"/>
<path class="st2" d="M887.5,204h-51.7c-10.3,0-18.7-3.5-25.4-10.7c-6.7-7.1-10-15.8-10-26.1v-34.7c0-10.3,3.3-19,10-26.1
	c6.6-7.1,15.1-10.7,25.4-10.7h51.7v14.7h-51.9c-5.9,0-10.8,2.4-14.7,7.1s-5.8,10.1-5.8,16.2v10.7h71.7v14.7h-71.7v7
	c0,6,1.9,11.3,5.8,16c3.9,4.6,8.7,7,14.7,7h51.9V204z"/>
<path class="st2" d="M1052.3,166.3c0,10.3-3.4,19.2-10.3,26.6c-6.9,7.4-15.5,11.1-25.7,11.1h-63c-10.1,0-18.7-3.5-25.6-10.4
	c-7-7-10.4-15.5-10.4-25.7V97.5H932v70.4c0,5.9,2.1,10.9,6.2,15.1c4.2,4.2,9.2,6.2,15.1,6.2h23V97.5H991v91.8h25.3
	c5.9,0,10.9-2.1,15.1-6.2c4.2-4.2,6.2-9.2,6.2-15.1V97.5h14.7L1052.3,166.3L1052.3,166.3z"/>
</svg>
