<?xml version="1.0" encoding="utf-8"?>
<!-- Generator: Adobe Illustrator 21.1.0, SVG Export Plug-In . SVG Version: 6.00 Build 0)  -->
<svg version="1.1" baseProfile="tiny" id="Layer_1" xmlns="http://www.w3.org/2000/svg" xmlns:xlink="http://www.w3.org/1999/xlink"
	 x="0px" y="0px" viewBox="0 0 283.5 283.5" xml:space="preserve">
<g>
	<path fill="none" d="M197.5,151c0.8,0.9,1.8,1.6,2.9,2c1.1,0.5,2.4,0.7,3.8,0.7c1.4,0,2.7-0.2,3.9-0.7c1.1-0.5,2.1-1.2,2.9-2
		c0.8-0.9,1.4-2,1.9-3.2c0.4-1.3,0.7-2.7,0.7-4.3c0-1.6-0.2-3.1-0.7-4.3c-0.4-1.3-1.1-2.4-1.9-3.3c-0.8-0.9-1.8-1.6-2.9-2
		c-1.1-0.5-2.4-0.7-3.9-0.7c-1.4,0-2.7,0.2-3.8,0.7c-1.2,0.5-2.1,1.2-2.9,2c-0.8,0.9-1.4,2-1.9,3.3c-0.4,1.3-0.7,2.7-0.7,4.3
		c0,1.6,0.2,3.1,0.7,4.3C196,149,196.7,150.1,197.5,151z"/>
	<path fill="none" d="M169.4,133.8h-3.2v8.8h3.1c0.9,0,1.7-0.1,2.4-0.4c0.7-0.2,1.3-0.6,1.7-1s0.8-0.9,1-1.5s0.3-1.2,0.3-1.9
		c0-1.3-0.4-2.4-1.3-3.1C172.6,134.1,171.2,133.8,169.4,133.8z"/>
	<ellipse fill="#262626" cx="48.7" cy="143.1" rx="5" ry="4.8"/>
	<ellipse fill="#262626" cx="95.8" cy="143.1" rx="5" ry="4.8"/>
	<path fill="#262626" d="M73,158c-2,1.6-3.6,3.8-4.8,6.6c1.2,2.7,2.8,4.9,4.8,6.6c2-1.6,3.6-3.8,4.8-6.6C76.6,161.8,75,159.6,73,158
		z"/>
	<path fill="#262626" d="M25.2,148.8c2.7,10.8,12.6,18.3,24.1,18.3c1.9,0,3.9-0.2,5.8-0.7c4.6-1.1,8.8-3.4,12.1-6.8l10.9-15.8
		l5.3-8.3c2-3.2,5.3-5.4,9.1-6.3c1.1-0.3,2.3-0.4,3.4-0.4c6.8,0,12.6,4.4,14.2,10.8c0.9,3.7,0.4,7.5-1.5,10.6
		c-2,3.2-5.3,5.4-9.3,6.3c-1.3,0.3-2.5,0.4-3.8,0.4c-4.9,0-9.3-2.3-11.9-6.4l-2.2-3.4l-5.9,9.2l1.2,1.4c4.8,5.7,11.8,8.9,19.3,8.9
		c1.9,0,3.8-0.2,5.7-0.6c13.3-3,21.6-15.9,18.4-28.6c-1.3-5.2-4.3-9.6-8.3-12.8c1.7-4.2,2.4-8.4,2.1-12.2c-4.3-0.3-8.9,0.4-13.6,2.3
		c-0.7,1.5-1.2,3.1-1.6,4.6c-0.9-0.1-1.8-0.2-2.7-0.2c-1.9,0-3.9,0.2-5.8,0.7c-4.7,1.1-8.9,3.4-12.2,6.8l0,0l-9.2,13.3L61,151.9
		l-0.4,0.4c-2.1,2.4-4.7,3.9-7.9,4.6c-1.3,0.3-2.5,0.4-3.8,0.4c-6.7,0-12.3-4.4-13.9-10.8c-0.9-3.6-0.3-7.4,1.8-10.6
		c2-3.2,5.3-5.4,9.1-6.3c1.1-0.3,2.2-0.4,3.4-0.4c4.9,0,9.5,2.4,12.3,6.4l2.3,3.3l5.9-9.2l-1.2-1.4c-4.8-5.7-11.8-8.9-19.3-8.9
		c-0.3,0-0.7,0-1,0c-0.4-1.6-1-3.2-1.7-4.8c-4.7-1.9-9.3-2.7-13.6-2.3c-0.3,3.7,0.3,7.6,1.8,11.6C26.9,129.5,22.8,139.2,25.2,148.8z
		"/>
	<path fill="#262626" d="M228.4,155.9l4.2-12.6c0.1-0.3,0.2-0.6,0.2-0.9c0.1-0.3,0.1-0.6,0.2-0.9c0.1,0.3,0.1,0.6,0.2,0.9
		c0.1,0.3,0.1,0.6,0.2,0.9l4.1,12.6c0.1,0.4,0.3,0.6,0.7,0.6h2.6l6-18.6h-2.5c-0.2,0-0.4,0.1-0.6,0.2c-0.2,0.1-0.3,0.3-0.3,0.5
		l-3.6,12c-0.1,0.4-0.2,0.8-0.3,1.2c-0.1,0.4-0.2,0.9-0.2,1.3c-0.1-0.4-0.2-0.8-0.3-1.2c-0.1-0.4-0.2-0.8-0.4-1.3l-3.8-12
		c-0.1-0.2-0.2-0.3-0.3-0.5c-0.2-0.1-0.4-0.2-0.6-0.2h-1.4c-0.2,0-0.4,0.1-0.6,0.2c-0.2,0.1-0.3,0.3-0.3,0.5l-3.9,12
		c-0.1,0.4-0.3,0.9-0.4,1.3s-0.2,0.8-0.3,1.2c-0.1-0.4-0.1-0.8-0.2-1.2c-0.1-0.4-0.2-0.8-0.3-1.3l-3.6-12c-0.1-0.2-0.2-0.3-0.4-0.5
		c-0.2-0.1-0.4-0.2-0.7-0.2h-2.6l6,18.6h2.5C228,156.5,228.2,156.3,228.4,155.9z"/>
	<rect x="250" y="129.5" fill="#262626" width="3.3" height="27"/>
	<path fill="#262626" d="M158.4,130h-4c-0.4,0-0.8,0.1-1,0.3c-0.3,0.2-0.5,0.5-0.6,0.8l-6.2,16.2c-0.4,1.1-0.8,2.3-1,3.7
		c-0.2-0.7-0.4-1.4-0.5-2s-0.4-1.2-0.6-1.7l-6.2-16.2c-0.1-0.3-0.3-0.6-0.6-0.8c-0.3-0.2-0.6-0.3-1-0.3h-4l10.7,26.5h4.5L158.4,130z
		"/>
	<path fill="#262626" d="M178.1,142.3c0.5-0.6,0.9-1.4,1.1-2.2c0.3-0.8,0.4-1.6,0.4-2.5c0-1.1-0.2-2.2-0.6-3.1
		c-0.4-0.9-1-1.7-1.8-2.4c-0.8-0.7-1.9-1.2-3.2-1.6c-1.3-0.4-2.8-0.6-4.7-0.6h-8.1v26.5h4.9v-10.4h2.1c0.5,0,0.9,0.1,1.1,0.2
		c0.2,0.1,0.5,0.4,0.7,0.7l5.6,8.5c0.2,0.3,0.5,0.6,0.8,0.7c0.3,0.2,0.7,0.3,1.1,0.3h4.4l-6.6-9.8c-0.5-0.7-1-1.2-1.6-1.5
		c0.9-0.3,1.8-0.7,2.5-1.2C177,143.5,177.6,143,178.1,142.3z M174.5,139.8c-0.2,0.6-0.6,1-1,1.5s-1,0.7-1.7,1
		c-0.7,0.2-1.5,0.4-2.4,0.4h-3.1v-8.8h3.2c1.8,0,3.2,0.4,4.1,1.1c0.9,0.7,1.3,1.8,1.3,3.1C174.8,138.6,174.7,139.3,174.5,139.8z"/>
	<path fill="#262626" d="M199,155.8c1.6,0.7,3.4,1,5.3,1s3.7-0.3,5.3-1c1.6-0.7,3-1.6,4.1-2.8c1.1-1.2,2-2.6,2.6-4.2
		c0.6-1.6,0.9-3.5,0.9-5.4c0-2-0.3-3.8-0.9-5.4c-0.6-1.6-1.5-3.1-2.6-4.3c-1.1-1.2-2.5-2.1-4.1-2.8c-1.6-0.7-3.4-1-5.3-1
		s-3.7,0.3-5.3,1c-1.6,0.7-3,1.6-4.1,2.8c-1.1,1.2-2,2.6-2.6,4.3c-0.6,1.6-0.9,3.5-0.9,5.4c0,2,0.3,3.8,0.9,5.4
		c0.6,1.6,1.5,3.1,2.6,4.2C196,154.2,197.4,155.1,199,155.8z M195.6,139c0.4-1.3,1.1-2.4,1.9-3.3c0.8-0.9,1.8-1.6,2.9-2
		c1.1-0.5,2.4-0.7,3.8-0.7c1.4,0,2.7,0.2,3.9,0.7c1.1,0.5,2.1,1.2,2.9,2c0.8,0.9,1.4,2,1.9,3.3c0.4,1.3,0.7,2.7,0.7,4.3
		c0,1.6-0.2,3.1-0.7,4.3c-0.4,1.3-1.1,2.4-1.9,3.2c-0.8,0.9-1.8,1.6-2.9,2c-1.1,0.5-2.4,0.7-3.9,0.7c-1.4,0-2.7-0.2-3.8-0.7
		c-1.2-0.5-2.1-1.2-2.9-2c-0.8-0.9-1.4-2-1.9-3.2c-0.4-1.3-0.7-2.7-0.7-4.3C194.9,141.7,195.1,140.3,195.6,139z"/>
</g>
</svg>
