<?xml version="1.0" encoding="utf-8"?>
<!-- Generator: Adobe Illustrator 21.1.0, SVG Export Plug-In . SVG Version: 6.00 Build 0)  -->
<svg version="1.1" xmlns="http://www.w3.org/2000/svg" xmlns:xlink="http://www.w3.org/1999/xlink" x="0px" y="0px"
	 viewBox="0 0 792 612" enable-background="new 0 0 792 612" xml:space="preserve">
<g id="Layer_1">
	<g>
		<rect x="352.7" y="293.8" fill="none" width="86.6" height="24.5"/>
		<g>
			<g>
				<path fill="#262626" d="M359,309.1c-0.1-0.1-0.3-0.3-0.3-0.5v-5.3c0-0.2,0.1-0.4,0.3-0.5l4.6-2.6c0.1-0.1,0.4-0.1,0.5,0l4.6,2.6
					c0.1,0.1,0.3,0.3,0.3,0.5v5.3c0,0.2-0.1,0.4-0.3,0.5l-4.6,2.6c-0.1,0.1-0.4,0.1-0.5,0L359,309.1z"/>
				<g>
					<g>
						<path fill="#262626" d="M362.9,305.5L362.9,305.5l-3.7-2.1c0,0.1-0.1,0.1-0.1,0.2v5c0,0.1,0,0.1,0.1,0.2l3.7-2.1v0V305.5z"/>
						<path fill="#FFFFFF" d="M363.4,305.2l2.3-1.3c0,0,0,0,0-0.1v-2.1c0,0,0,0,0-0.1l-1.7-1c-0.1-0.1-0.3-0.1-0.4,0l-4.3,2.5
							c0,0-0.1,0.1-0.1,0.1l3.7,2.1L363.4,305.2z"/>
						<path fill="#FFFFFF" d="M359.3,308.8l3.5,2c0,0,0.1,0,0.1-0.1v-4.2l-3.7,2.1C359.3,308.7,359.3,308.8,359.3,308.8z"/>
						<path fill="#FFFFFF" d="M368.4,303.4c0-0.1-0.1-0.1-0.1-0.1l-1.6-0.9c0,0-0.1,0-0.1,0.1v2"/>
						<path fill="#262626" d="M363.8,306L363.8,306l4.6-2.6c0,0.1,0.1,0.1,0.1,0.2v5c0,0.1,0,0.1,0,0.2L363.8,306"/>
						<g>
							<path fill="#FFE300" d="M363.8,306l0,5.2c0,0.1,0.1,0.1,0.1,0.1l4.4-2.5c0.1,0,0.1-0.1,0.1-0.1L363.8,306z"/>
						</g>
					</g>
				</g>
			</g>
			<g>
				<g>
					<path fill="#262626" d="M385.3,303c0.3,0,0.5,0,0.7,0.1c0.2,0.1,0.4,0.2,0.5,0.4c0.1,0.2,0.2,0.3,0.3,0.6
						c0.1,0.2,0.1,0.5,0.1,0.7v3.2c0,0.7-0.3,1-1,1h-3c-0.5,0-0.9-0.2-1.1-0.5c-0.2-0.3-0.4-0.8-0.4-1.4c0-0.6,0.1-1,0.4-1.4
						c0.2-0.3,0.6-0.5,1.1-0.5h2.7v-0.4c0-0.6-0.3-0.9-0.8-0.9h-2.9v-1H385.3z M383.5,306.3c-0.2,0-0.4,0.1-0.5,0.2
						c-0.1,0.1-0.1,0.4-0.1,0.6c0,0.3,0,0.5,0.1,0.6c0.1,0.1,0.3,0.2,0.5,0.2h1.9c0.2,0,0.3-0.1,0.3-0.3v-1.4H383.5z"/>
					<path fill="#262626" d="M390.9,309c-0.3,0-0.6,0-0.9-0.1c-0.3-0.1-0.5-0.2-0.7-0.3c-0.2-0.2-0.3-0.4-0.4-0.6
						c-0.1-0.2-0.2-0.6-0.2-0.9v-3h-0.8v-1h0.8v-1.9h1.3v1.9h1.7v1H390v2.8c0,0.5,0.1,0.8,0.4,0.9c0.2,0.2,0.6,0.3,1,0.3h0.3v1
						H390.9z"/>
					<path fill="#262626" d="M395.6,309c-0.3,0-0.6,0-0.9-0.1c-0.3-0.1-0.5-0.2-0.7-0.3c-0.2-0.2-0.3-0.4-0.4-0.6
						c-0.1-0.2-0.2-0.6-0.2-0.9v-3h-0.8v-1h0.8v-1.9h1.3v1.9h1.7v1h-1.7v2.8c0,0.5,0.1,0.8,0.4,0.9c0.2,0.2,0.6,0.3,1,0.3h0.3v1
						H395.6z"/>
					<path fill="#262626" d="M399.5,309c-0.5,0-0.9-0.1-1.1-0.2c-0.3-0.1-0.5-0.3-0.7-0.6c-0.2-0.3-0.3-0.6-0.3-0.9
						c-0.1-0.4-0.1-0.8-0.1-1.3c0-0.6,0.1-1.1,0.2-1.5c0.1-0.4,0.3-0.7,0.5-0.9c0.2-0.2,0.5-0.4,0.9-0.5c0.4-0.1,0.8-0.1,1.3-0.1
						c0.4,0,0.8,0,1.1,0.1c0.3,0.1,0.6,0.2,0.9,0.4c0.2,0.2,0.4,0.4,0.6,0.7c0.1,0.3,0.2,0.7,0.2,1.2c0,0.3-0.1,0.6-0.2,0.8
						c-0.1,0.2-0.4,0.3-0.7,0.3h-3.4c0,0.2,0,0.4,0,0.6c0,0.2,0.1,0.3,0.2,0.5c0.1,0.1,0.2,0.2,0.4,0.3c0.2,0.1,0.4,0.1,0.7,0.1h2.9
						v1H399.5z M401.3,305.5c0.1,0,0.2,0,0.2-0.1c0-0.1,0.1-0.2,0.1-0.2c0-0.2,0-0.4-0.1-0.5c-0.1-0.1-0.2-0.3-0.3-0.3
						c-0.1-0.1-0.3-0.2-0.5-0.2c-0.2,0-0.4-0.1-0.6-0.1c-0.6,0-0.9,0.1-1.2,0.3c-0.2,0.2-0.3,0.6-0.3,1.1H401.3z"/>
					<path fill="#262626" d="M406.2,303c-0.8,0-1.4,0.2-1.8,0.5c-0.4,0.4-0.6,0.9-0.6,1.7v3.7h1.3v-3.4c0-0.5,0.1-0.9,0.3-1.2
						c0.2-0.3,0.6-0.4,1.1-0.4h1.1v-1H406.2z"/>
					<path fill="#262626" d="M411.6,303c0.5,0,0.9,0.1,1.2,0.2c0.3,0.1,0.6,0.3,0.8,0.6c0.2,0.3,0.3,0.6,0.4,0.9
						c0.1,0.4,0.1,0.8,0.1,1.2c0,0.5,0,0.9-0.1,1.2c-0.1,0.4-0.2,0.7-0.4,1c-0.2,0.3-0.4,0.5-0.8,0.6c-0.3,0.1-0.7,0.2-1.2,0.2h-1.8
						v1.9h-1.3V304c0-0.7,0.3-1,1-1H411.6z M409.8,308h1.5c0.3,0,0.6-0.1,0.8-0.2c0.2-0.1,0.3-0.2,0.4-0.4c0.1-0.2,0.2-0.4,0.2-0.6
						c0-0.2,0-0.5,0-0.8c0-0.3,0-0.5,0-0.8c0-0.2-0.1-0.5-0.2-0.6c-0.1-0.2-0.2-0.3-0.4-0.4c-0.2-0.1-0.4-0.1-0.8-0.1h-1.1
						c-0.2,0-0.3,0.1-0.3,0.3V308z"/>
					<path fill="#262626" d="M418.1,303c0.5,0,1,0,1.4,0.1c0.4,0.1,0.7,0.3,1,0.5c0.3,0.2,0.5,0.5,0.6,0.9c0.1,0.4,0.2,0.9,0.2,1.5
						c0,0.6-0.1,1.1-0.2,1.5c-0.1,0.4-0.3,0.7-0.6,0.9c-0.3,0.2-0.6,0.4-1,0.5c-0.4,0.1-0.9,0.1-1.4,0.1c-0.5,0-1,0-1.4-0.1
						c-0.4-0.1-0.7-0.3-1-0.5c-0.3-0.2-0.5-0.5-0.6-0.9c-0.1-0.4-0.2-0.9-0.2-1.5c0-0.6,0.1-1.1,0.2-1.5c0.1-0.4,0.3-0.7,0.6-0.9
						c0.3-0.2,0.6-0.4,1-0.5C417.1,303,417.5,303,418.1,303z M416.3,306c0,0.4,0,0.7,0.1,0.9c0.1,0.3,0.2,0.5,0.3,0.6
						c0.1,0.2,0.3,0.3,0.6,0.4c0.2,0.1,0.5,0.1,0.8,0.1s0.6,0,0.8-0.1c0.2-0.1,0.4-0.2,0.6-0.4c0.1-0.2,0.2-0.4,0.3-0.6
						c0.1-0.3,0.1-0.6,0.1-0.9c0-0.4,0-0.7-0.1-0.9c-0.1-0.3-0.2-0.5-0.3-0.6c-0.1-0.2-0.3-0.3-0.6-0.4c-0.2-0.1-0.5-0.1-0.8-0.1
						s-0.6,0-0.8,0.1c-0.2,0.1-0.4,0.2-0.6,0.4c-0.1,0.2-0.2,0.4-0.3,0.6C416.3,305.3,416.3,305.6,416.3,306z"/>
					<path fill="#262626" d="M429.9,309c-0.3,0-0.6,0-0.9-0.1c-0.3-0.1-0.5-0.2-0.7-0.3c-0.2-0.2-0.3-0.4-0.4-0.6
						c-0.1-0.2-0.2-0.6-0.2-0.9v-3h-0.8v-1h0.8v-1.9h1.3v1.9h1.7v1H429v2.8c0,0.5,0.1,0.8,0.4,0.9c0.2,0.2,0.6,0.3,1,0.3h0.3v1
						H429.9z"/>
					<path fill="#262626" d="M424.6,303c-0.8,0-1.4,0.2-1.8,0.5c-0.4,0.4-0.6,0.9-0.6,1.7v3.7h1.3v-3.4c0-0.5,0.1-0.9,0.3-1.2
						c0.2-0.3,0.6-0.4,1.1-0.4h1.1v-1H424.6z"/>
					<path fill="#262626" d="M380.4,304.1c-0.1-0.3-0.3-0.5-0.5-0.6c-0.2-0.2-0.4-0.3-0.7-0.3c-0.3-0.1-0.6-0.1-0.9-0.1H372v6h1.3
						v-5h2.3v5h1.3v-5h1c0.5,0,0.8,0.1,1,0.4c0.2,0.2,0.3,0.6,0.3,1v3.6h1.3v-4C380.6,304.7,380.5,304.4,380.4,304.1z"/>
				</g>
				<g>
					<path fill="#00355A" d="M431.5,303.5c0-0.1,0-0.3,0.1-0.4c0.1-0.1,0.2-0.2,0.3-0.3c0.1-0.1,0.3-0.1,0.4-0.1
						c0.1,0,0.3,0,0.4,0.1c0.1,0.1,0.2,0.2,0.3,0.3c0.1,0.1,0.1,0.3,0.1,0.4c0,0.1,0,0.3-0.1,0.4c-0.1,0.1-0.2,0.2-0.3,0.3
						c-0.1,0.1-0.3,0.1-0.4,0.1c-0.1,0-0.3,0-0.4-0.1c-0.1-0.1-0.2-0.2-0.3-0.3C431.5,303.8,431.5,303.7,431.5,303.5z M431.6,303.5
						c0,0.1,0,0.2,0.1,0.3c0.1,0.1,0.1,0.2,0.3,0.3c0.1,0.1,0.2,0.1,0.3,0.1c0.1,0,0.2,0,0.3-0.1c0.1-0.1,0.2-0.1,0.3-0.3
						c0.1-0.1,0.1-0.2,0.1-0.3c0-0.1,0-0.2-0.1-0.3c-0.1-0.1-0.1-0.2-0.3-0.3c-0.1-0.1-0.2-0.1-0.3-0.1c-0.1,0-0.2,0-0.3,0.1
						c-0.1,0.1-0.2,0.1-0.3,0.3C431.7,303.3,431.6,303.4,431.6,303.5z M432.6,303.3c0,0.1,0,0.1,0,0.2c0,0-0.1,0.1-0.1,0.1l0.3,0.4
						h-0.2l-0.2-0.4h-0.1v0.4H432V303h0.3c0.1,0,0.2,0,0.3,0.1C432.6,303.2,432.6,303.2,432.6,303.3z M432.2,303.5h0.1
						c0.1,0,0.1,0,0.1,0c0,0,0.1-0.1,0.1-0.1c0-0.1,0-0.1,0-0.1c0,0-0.1,0-0.1,0h-0.1V303.5z"/>
				</g>
			</g>
		</g>
	</g>
	<path fill="#FFFFFF" d="M363.8,309.1v2c0,0,0,0.2,0.1,0.1c0.2-0.1,4.1-2.3,4.1-2.3s0.4-0.2,0.4-0.3c0,0-0.3-0.2-0.3-0.2l-4.3-2.4
		L363.8,309.1z"/>
</g>
<g id="Layer_2">
</g>
</svg>
