<?xml version="1.0" encoding="utf-8"?>
<!-- Generator: Adobe Illustrator 21.1.0, SVG Export Plug-In . SVG Version: 6.00 Build 0)  -->
<svg version="1.1" xmlns="http://www.w3.org/2000/svg" xmlns:xlink="http://www.w3.org/1999/xlink" x="0px" y="0px"
	 viewBox="0 0 792 612" enable-background="new 0 0 792 612" xml:space="preserve">
<g id="Layer_1">
	<g>
		<rect x="-34.2" y="184.5" fill="none" width="860.3" height="243"/>
		<g>
			<g>
				<path fill="#262626" d="M28.1,336.9c-1.5-0.8-2.7-2.9-2.7-4.6v-52.5c0-1.7,1.2-3.8,2.7-4.6l45.5-26.3c1.5-0.8,3.9-0.8,5.3,0
					l45.5,26.3c1.5,0.8,2.7,2.9,2.7,4.6v52.5c0,1.7-1.2,3.8-2.7,4.6l-45.5,26.3c-1.5,0.8-3.9,0.8-5.3,0L28.1,336.9z"/>
				<g>
					<g>
						<path fill="#262626" d="M67.1,300.6L67.1,300.6l-36.6-21c-0.3,0.6-0.5,1.2-0.5,1.8v49.3c0,0.6,0.2,1.2,0.6,1.8l36.6-21.1v0
							V300.6z"/>
						<path fill="#FFFFFF" d="M71.9,297.9l22.7-13c0.2-0.1,0.3-0.3,0.3-0.5v-20.5c0-0.2-0.1-0.4-0.3-0.5L78,253.7
							c-1-0.5-2.5-0.5-3.5,0l-42.8,24.6c-0.5,0.3-0.9,0.7-1.2,1.2l36.6,21L71.9,297.9z"/>
						<path fill="#FFFFFF" d="M31.7,333.6l34.4,19.8c0.4,0.2,0.9-0.1,0.9-0.5v-41.6l-36.6,21.1C30.9,332.9,31.3,333.4,31.7,333.6z"
							/>
						<path fill="#FFFFFF" d="M122.1,279.7c-0.3-0.6-0.8-1-1.2-1.3l-15.8-9.1c-0.4-0.2-0.9,0.1-0.9,0.5V290"/>
						<path fill="#262626" d="M76.4,306L76.4,306l45.7-26.3c0.3,0.5,0.5,1.1,0.5,1.7v49.3c0,0.5-0.2,1.1-0.5,1.6L76.4,306"/>
						<g>
							<path fill="#FFE300" d="M344.2,306l0,8.4c0,0.1,0.1,0.2,0.2,0.1l7-4c0.1,0,0.2-0.1,0.2-0.2L344.2,306z"/>
						</g>
					</g>
				</g>
			</g>
			<g>
				<g>
					<path fill="#262626" d="M289.7,276.4c2.8,0,5.2,0.4,7.3,1.3c2.1,0.9,3.8,2.1,5.3,3.7c1.4,1.6,2.5,3.4,3.1,5.6
						c0.7,2.1,1,4.5,1,7v31.9c0,6.8-3.4,10.1-10.1,10.1h-30c-5.1,0-8.8-1.5-11.2-4.6c-2.4-3.1-3.6-7.7-3.6-13.9
						c0-5.6,1.2-10.1,3.6-13.5c2.4-3.4,6.1-5.1,11.2-5.1h27V295c0-5.7-2.8-8.5-8.3-8.5h-29.1v-10.1H289.7z M271.3,309
						c-2.3,0-3.9,0.7-4.8,2.1c-1,1.4-1.5,3.5-1.5,6.4c0,2.8,0.5,5,1.5,6.4c1,1.4,2.6,2.1,4.8,2.1h18.6c2.3,0,3.4-1.1,3.4-3.4V309
						H271.3z"/>
					<path fill="#262626" d="M345,335.8c-3.4,0-6.4-0.3-9.1-1c-2.7-0.6-5-1.7-6.9-3.3c-1.9-1.5-3.4-3.5-4.4-6
						c-1-2.5-1.5-5.6-1.5-9.2v-30h-8.2v-10.1h8.2v-19.1h13.2v19.1h17v10.1h-17v27.3c0,4.5,1.2,7.6,3.5,9.4c2.3,1.8,5.7,2.6,10.2,2.6
						h3.3v10.1H345z"/>
					<path fill="#262626" d="M391.9,336.1c-3.4,0-6.4-0.3-9.1-1c-2.7-0.6-5-1.7-6.9-3.3c-1.9-1.5-3.4-3.5-4.4-6
						c-1-2.5-1.5-5.6-1.5-9.2v-30h-8.2v-10.1h8.2v-19.1h13.2v19.1h17v10.1h-17v27.3c0,4.5,1.2,7.6,3.5,9.4c2.3,1.8,5.7,2.6,10.2,2.6
						h3.3v10.1H391.9z"/>
					<path fill="#262626" d="M430.7,336c-4.7,0-8.5-0.7-11.4-2c-2.9-1.3-5.1-3.2-6.7-5.8c-1.6-2.5-2.7-5.6-3.2-9.3
						c-0.6-3.7-0.8-7.9-0.8-12.7c0-5.9,0.5-10.8,1.6-14.6c1.1-3.9,2.8-7,5.1-9.3c2.3-2.3,5.3-3.9,8.8-4.9c3.5-0.9,7.8-1.4,12.8-1.4
						c4.1,0,7.9,0.3,11.4,1c3.5,0.7,6.4,1.9,8.9,3.6c2.5,1.8,4.4,4.1,5.8,7.2c1.4,3,2.1,6.9,2.1,11.7c0,3.4-0.7,6.1-2.1,8.1
						c-1.4,2-3.7,3.1-7,3.1H422c0,2.2,0.1,4.3,0.4,6.2c0.3,1.9,0.8,3.5,1.7,4.8c0.9,1.3,2.2,2.4,3.8,3.1c1.7,0.7,3.9,1.1,6.7,1.1
						h28.7V336H430.7z M448.9,300.6c1.2,0,2-0.4,2.4-1.1c0.3-0.7,0.5-1.5,0.5-2.3c0-1.9-0.4-3.6-1.2-5c-0.8-1.4-1.9-2.6-3.3-3.5
						c-1.4-0.9-3-1.5-4.8-2c-1.8-0.4-3.7-0.6-5.6-0.6c-5.5,0-9.4,1.2-11.6,3.5c-2.2,2.3-3.3,6-3.3,11.1H448.9z"/>
					<path fill="#262626" d="M497.5,276.5c-8,0-14,1.8-18,5.2c-4,3.5-6,9.2-6,17.3v37.1h13.2v-33.6c0-5.3,1.1-9.3,3.2-11.9
						c2.1-2.6,5.8-3.9,11.1-3.9h10.9v-10.1H497.5z"/>
					<path fill="#262626" d="M551.3,276.5c4.8,0,8.8,0.7,11.9,2.1c3.1,1.4,5.6,3.4,7.5,6c1.9,2.6,3.2,5.7,3.9,9.3
						c0.7,3.6,1.1,7.7,1.1,12.2s-0.4,8.6-1.1,12.3c-0.8,3.7-2.1,6.8-3.9,9.4c-1.9,2.6-4.4,4.7-7.5,6.1c-3.1,1.4-7.1,2.1-11.9,2.1
						h-17.8v19.1h-13.2v-68.6c0-6.7,3.4-10.1,10.1-10.1H551.3z M533.5,326H548c3.2,0,5.7-0.5,7.5-1.5c1.9-1,3.3-2.4,4.3-4.2
						c1-1.8,1.6-3.8,1.9-6.2c0.3-2.4,0.4-5,0.4-7.9c0-2.8-0.1-5.4-0.4-7.8c-0.3-2.4-0.9-4.5-1.9-6.2c-1-1.8-2.4-3.1-4.3-4.1
						c-1.9-1-4.4-1.5-7.5-1.5h-11.1c-2.2,0-3.4,1-3.4,2.9V326z"/>
					<path fill="#262626" d="M615.3,275.8c5.2,0,9.8,0.5,13.7,1.4c3.9,0.9,7.1,2.5,9.7,4.8c2.6,2.3,4.5,5.3,5.8,9.2
						c1.3,3.8,1.9,8.7,1.9,14.5c0,5.9-0.6,10.8-1.9,14.6c-1.3,3.8-3.2,6.9-5.8,9.2c-2.6,2.3-5.8,3.9-9.7,4.9
						c-3.9,0.9-8.5,1.4-13.7,1.4c-5.2,0-9.8-0.5-13.7-1.4c-3.9-0.9-7.1-2.5-9.7-4.9c-2.6-2.3-4.5-5.4-5.8-9.2
						c-1.3-3.8-1.9-8.7-1.9-14.6c0-5.8,0.6-10.6,1.9-14.5c1.3-3.8,3.2-6.9,5.8-9.2c2.6-2.3,5.8-3.9,9.7-4.8
						C605.5,276.3,610.1,275.8,615.3,275.8z M597.5,305.7c0,3.6,0.3,6.7,0.9,9.2c0.6,2.5,1.6,4.6,3,6.2c1.4,1.6,3.2,2.8,5.5,3.6
						c2.3,0.7,5.1,1.1,8.4,1.1s6.1-0.4,8.4-1.1c2.3-0.7,4.1-1.9,5.5-3.6c1.4-1.6,2.4-3.7,3-6.2c0.6-2.5,0.9-5.6,0.9-9.2
						c0-3.6-0.3-6.7-0.9-9.2c-0.6-2.5-1.6-4.5-3-6.1c-1.4-1.6-3.2-2.8-5.5-3.5c-2.3-0.7-5.1-1.1-8.4-1.1s-6.1,0.4-8.4,1.1
						c-2.3,0.7-4.1,1.9-5.5,3.5c-1.4,1.6-2.4,3.6-3,6.1C597.8,299,597.5,302.1,597.5,305.7z"/>
					<path fill="#262626" d="M732.8,336.1c-3.4,0-6.4-0.3-9.1-1c-2.7-0.6-5-1.7-6.9-3.3c-1.9-1.5-3.4-3.5-4.4-6
						c-1-2.5-1.5-5.6-1.5-9.2v-30h-8.2v-10.1h8.2v-19.1H724v19.1h17v10.1h-17v27.3c0,4.5,1.2,7.6,3.5,9.4c2.3,1.8,5.8,2.6,10.2,2.6
						h3.3v10.1H732.8z"/>
					<path fill="#262626" d="M679.7,276.5c-8,0-14,1.8-18.1,5.2c-4,3.5-6,9.2-6,17.3v37.1h13.2v-33.6c0-5.3,1-9.3,3.1-11.9
						c2.1-2.6,5.8-3.9,11.1-3.9H694v-10.1H679.7z"/>
					<path fill="#262626" d="M241.2,287c-1.2-2.6-2.8-4.7-4.8-6.3c-2-1.6-4.5-2.7-7.3-3.3c-2.9-0.6-6-1-9.3-1H158v59.6h13.2v-49.5
						h22.7v49.5H207v-49.5h10.2c4.5,0,7.7,1.2,9.6,3.5c1.9,2.3,2.9,5.7,2.9,10.2v35.8h13.2v-39.3C242.9,292.9,242.3,289.7,241.2,287
						z"/>
				</g>
				<g>
					<path fill="#262626" d="M748.9,281.4c0-1.4,0.4-2.7,1.1-4c0.7-1.2,1.7-2.2,2.9-2.9c1.2-0.7,2.6-1.1,4-1.1s2.7,0.4,4,1.1
						c1.2,0.7,2.2,1.7,2.9,2.9c0.7,1.2,1.1,2.6,1.1,4c0,1.4-0.3,2.7-1,3.9c-0.7,1.2-1.6,2.2-2.9,2.9c-1.2,0.7-2.6,1.1-4.1,1.1
						c-1.5,0-2.8-0.4-4-1.1c-1.2-0.7-2.2-1.7-2.9-2.9C749.3,284.1,748.9,282.8,748.9,281.4z M750,281.4c0,1.2,0.3,2.4,0.9,3.4
						c0.6,1.1,1.4,1.9,2.5,2.5c1.1,0.6,2.2,0.9,3.4,0.9c1.2,0,2.4-0.3,3.4-0.9c1-0.6,1.9-1.4,2.5-2.5c0.6-1,0.9-2.2,0.9-3.4
						c0-1.2-0.3-2.4-0.9-3.4c-0.6-1.1-1.4-1.9-2.5-2.5c-1-0.6-2.2-0.9-3.4-0.9c-1.2,0-2.4,0.3-3.4,0.9c-1,0.6-1.9,1.4-2.5,2.5
						C750.3,279,750,280.1,750,281.4z M760.1,279.4c0,0.6-0.1,1.1-0.4,1.5c-0.3,0.4-0.7,0.8-1.3,1l2.5,4.2h-1.8l-2.2-3.7h-1.4v3.7
						h-1.6v-9.4h2.8c1.2,0,2,0.2,2.6,0.7C759.8,277.8,760.1,278.5,760.1,279.4z M755.5,281h1.1c0.6,0,1-0.1,1.4-0.4
						c0.3-0.3,0.5-0.7,0.5-1.1c0-0.5-0.2-0.9-0.5-1.1c-0.3-0.2-0.8-0.3-1.4-0.3h-1.1V281z"/>
				</g>
			</g>
		</g>
	</g>
	<path fill="#FFFFFF" d="M76.4,337v20.2c0,0-0.2,2,1.4,1.2s40.5-23.1,40.5-23.1s3.9-1.5,4-3.2c0-0.1-3.3-1.9-3.3-1.9L76.5,306
		L76.4,337z"/>
</g>
<g id="Layer_2">
</g>
</svg>
