<?xml version="1.0" encoding="utf-8"?>
<!-- Generator: Adobe Illustrator 22.1.0, SVG Export Plug-In . SVG Version: 6.00 Build 0)  -->
<svg version="1.1" id="Ebene_1" xmlns="http://www.w3.org/2000/svg" xmlns:xlink="http://www.w3.org/1999/xlink" x="0px" y="0px"
	 viewBox="0 0 331.6 152.7" style="enable-background:new 0 0 331.6 152.7;" xml:space="preserve">
<style type="text/css">
	.st0{fill:#DFAB1C;}
	.st1{fill:none;}
</style>
<title>Miles-LiFung-Logo</title>
<path class="st0" d="M313.8,93.4h-32.6c-2.6,0-4.7,2.1-4.7,4.6v0v25.7c0,2.6,2.1,4.7,4.7,4.7l0,0h32.6c2.6,0,4.7-2.1,4.7-4.7l0,0
	V98.1C318.5,95.5,316.4,93.4,313.8,93.4z M314.7,119.7c-0.9,0.9-1.9,1.6-3,2.1c-1.3,0.5-4.9,1.9-6,2.2c-2.1,0.6-4.3,0.9-6.5,1
	c-4.5,0.2-9-0.6-13.2-2.3c-1.9-0.8-3.6-1.8-5.4-2.8c0,0-0.9-0.8-0.8-1.5c0-0.6,0.5-1.1,1.1-1.2c0.5,0,0.9,0.1,1.3,0.3
	c0.4,0.2,1.3,0.8,1.3,0.8s0,0,0.3,0l0.4,0.1c0,0,0.1,0.1,0.2-0.2s0.3-2,0.3-2.9s0.2-11.7,0.2-11.7s0.1-0.3-0.2-0.3
	c-0.2,0-0.4,0.1-0.5,0.2c0,0-1.3,0.7-1.5,0.8c-0.5,0.3-1.1,0.3-1.6,0.1c-0.3-0.1-0.6-0.4-0.8-0.6c0,0-0.4-0.5,0.3-1.3
	c0.9-1,1.9-1.8,3.2-2.3c1.6-0.7,3.8-1.3,4.1-1.5s1.2-0.4,1.3-0.4c0.5-0.3,1-0.3,1.5,0c0.7,0.4,1,1.2,0.6,1.9c0,0,0,0,0,0
	c-0.3,0.4-0.8,0.7-1.3,0.7c-0.2,0-1.2,0.2-1.4,0.6c-0.1,0.2-0.1,0.3-0.1,0.5c0,0.3-0.3,3.5-0.3,3.5s-0.2,3.2-0.2,5s0,5,0,5v4.5
	c0.3,0.2,0.6,0.4,0.9,0.6c1.2,0.5,2.4,0.8,3.7,1.1c1.9,0.3,3.9,0.4,5.8,0.4c0.4,0,5.4,0.1,8.4-1.3c0.5-0.1,0.8-0.6,0.8-1.1
	c0-0.9-0.1-4.4-0.1-4.4c0-0.9,0.1-1.9,0.3-2.8c0.2-0.6,0.8-1,1.4-0.9c0.6,0,1.2,0.4,1.3,1c0.2,1,0.3,2.1,0.3,3.2
	c0,0.6,0,1.3-0.1,1.9c0,0.3-0.1,0.7,0.2,0.8s0.8,0,1-0.1l1.5-0.8c0.5-0.2,1.2-0.1,1.5,0.4C315.3,118.3,315.2,119.2,314.7,119.7
	L314.7,119.7z M279.9,110.5c0-1.6,1.8-1.7,1.8-1.7c1,0,1.9,0.7,1.9,1.8c0,0.1,0,0.1,0,0.2c0.1,1.5-1.5,1.8-1.5,1.8
	c-1,0.2-2-0.6-2.2-1.6C279.9,110.7,279.9,110.6,279.9,110.5L279.9,110.5z M291.5,105.3c0.1,0.7,0.3,1.4,0.6,2
	c0.2,0.5,0.3,1.1,0.1,1.7c-0.2,1-0.9,3-0.9,3c-0.3,0.8-0.3,1.7-0.1,2.6c0.4,1,1.1,1,1.4,0.9s0.8-0.6,0.4-1.7s-0.7-1.4-0.6-2.1
	c0.2-0.9,0.6-1.7,1.2-2.3c0.7-0.8,1.3-1.4,1.9-1.3s1.5,0.5,1.5,1.4c0,0.2,0,0.6-0.8,1.7c-0.4,0.5-0.6,1.2-0.6,1.8
	c0.2,0.9,0.3,1.9,0.2,2.8c-0.3,1-1,1.8-1.9,2.2c-1.4,0.8-3.3,0.5-4.3-0.8c-0.8-0.7-1.2-1.7-1.2-2.8c-0.2-0.8-0.2-1.6,0-2.4
	c0.4-1.2,0.7-2.4,0.8-3.6c-0.3-1.2-0.5-2.4-0.4-3.6c0.2-1.9,1.8-3.4,3.8-3.6c1.4,0,2.7,0.7,3.4,2c0.6,1.1,0.9,3.4-0.6,3.6
	c-0.8,0.2-1.6-0.3-1.8-1.1c0,0,0,0,0,0c-0.1-0.4-0.2-0.8-0.2-1.2c-0.1-0.4-0.5-0.7-0.9-0.6c0,0,0,0,0,0
	C291.6,104,291.5,105.1,291.5,105.3L291.5,105.3z M313.6,112.8c-1,0-1.9-0.8-1.9-1.9c0-1,0.7-1.8,1.7-1.8c0,0,0,0,0.1,0
	c1.6-0.1,1.9,1.8,1.9,1.8C315.4,112,314.6,112.8,313.6,112.8C313.6,112.9,313.6,112.9,313.6,112.8L313.6,112.8z M315.1,104.2
	c-1.4,1.5-3.5-0.7-3.5-0.7l-0.6-0.1c-0.2,0.3-0.3,0.7-0.3,1.1c-0.1,0.8,0.9,5.8-1.6,5.6c-1.6-0.2-1.3-2.1-1.4-2.3s-0.1-5.3-0.1-5.3
	c0-0.4-0.3-0.9-0.7-1c-1.3-0.6-2.6-1-4-1.4c-0.7-0.1-1.3-0.1-2,0.1c-0.1,0.5-0.2,1.1-0.2,1.7c0,0.6,0,1.2,0.1,1.8c0,0,0.1,0,0,0.3
	c-0.1,0.5-0.2,1-0.2,1.6c0,0.3,0.2,1.2,1,1.2s0.7-1.1,0.6-1.3c-0.3-0.7-0.5-1.4-0.6-2.1c0-0.7,0.6-1.3,1.3-1.3c1,0,1.8,0.8,2.1,2
	c0.2,1,0.3,2.1,0.1,3.1c-0.1,0.7-0.4,2.8-0.5,3.6c-0.1,1.1,0,2.2,0.3,3.2c0.1,0.4,0.3,0.8,0.5,1.2c0,0,0.1,0,0.1,0.4
	s-0.3,1.4-1.3,1.4s-2.4-1.3-2.5-3.5s-0.2-3.6-0.2-3.6s0-0.3-0.3-0.3s-0.3,0.1-0.3,0.4c-0.3,1.7-0.4,3.3-0.4,5
	c0.1,2.2,0.1,2.1,0.1,2.1c0,0.1,0,0.2,0,0.3c0,0.2-0.1,0.4,0.1,0.5l1,0.1c0.2,0,1.5-0.1,2,0.6c0.5,0.7,0.3,1.6-0.4,2.1
	c0,0-0.1,0.1-0.1,0.1c-0.9,0.4-1.8,0.5-2.8,0.4c-0.8-0.1-1.7-0.2-2.6-0.2c-0.7,0.1-3.1,0.3-3.7-0.3c-0.5-0.3-0.7-0.9-0.6-1.4
	c0.1-0.5,0.4-1.2,1.7-1.3s1.8,0,1.8,0s0.2-2,0.3-2.5s0.2-5.2,0.2-5.5s0-7.4,0-7.4s0-1.9,0.1-2s0-0.6-0.6-0.6c-0.5,0-1,0-1.5,0.1
	c-0.6,0.1-2.2,0.4-2.8-0.3s-0.3-1-0.3-1s-0.3-1.5,2-1.6c2.7-0.1,5.5,0,8.2,0.3c3.9,0.4,7.6,1.8,10.8,4.1
	C313.5,101.4,316.4,102.7,315.1,104.2L315.1,104.2z"/>
<path class="st0" d="M20.3,97.5H23l7.1,18.3h-2.7l-2-5.5h-7.7l-2,5.5h-2.5L20.3,97.5z M18.4,108.2h6.2l-3-8.5h-0.1L18.4,108.2z"/>
<path class="st0" d="M39,97.5h2.4v16.2h9.7v2H39L39,97.5z"/>
<path class="st0" d="M55.2,100.2H53v-2.7h2.2V100.2z M53,102.6h2.2v13.2H53V102.6z"/>
<path class="st0" d="M75.8,113.5c-1.2,1.7-3.1,2.6-5.2,2.6c-4.9,0-5.7-3.5-5.7-5c0-2.9,1.9-4.3,4.3-5.5c-1-1.5-2-2.4-2-4.3
	c0-2.1,1.7-3.8,3.8-3.8c0.1,0,0.2,0,0.3,0c2.3,0,4.4,1.2,4.4,3.7c0,2.2-1.7,3.7-3.4,4.7l3.3,4c0.3-0.9,0.5-1.9,0.6-2.8h2.1
	c-0.1,1.6-0.5,3.1-1.2,4.5l3.6,4.1h-2.8L75.8,113.5z M70.4,107c-1.7,1-3.2,1.9-3.2,4.1c0.1,1.8,1.7,3.2,3.5,3.1
	c1.6,0,3.1-0.8,3.9-2.2L70.4,107z M73.5,101.4c-0.1-1.2-1.1-2-2.3-1.9c-1,0.1-1.8,0.9-1.9,1.9c0,1.1,1,2.2,1.8,3.2
	C72.1,103.9,73.5,102.9,73.5,101.4L73.5,101.4z"/>
<path class="st0" d="M89.3,97.5h12v2h-9.6v5.8h8.4v2h-8.4v8.4h-2.4L89.3,97.5z"/>
<path class="st0" d="M114.6,115.8h-2v-2.1h-0.1c-0.8,1.6-2.5,2.5-4.3,2.4c-3.5,0-4.6-2-4.6-4.8v-8.7h2.2v9c-0.1,1.4,0.9,2.6,2.3,2.7
	c0.1,0,0.3,0,0.4,0c2.6,0,3.9-1.8,3.9-4.2v-7.5h2.1V115.8z"/>
<path class="st0" d="M117.9,102.6h2v2.1h0.1c0.8-1.6,2.5-2.5,4.3-2.4c3.5,0,4.6,2,4.6,4.8v8.7h-2.1v-9c0.1-1.4-0.9-2.6-2.3-2.7
	c-0.1,0-0.3,0-0.4,0c-2.6,0-3.9,1.8-3.9,4.2v7.5h-2.2L117.9,102.6z"/>
<path class="st0" d="M143.5,114.7c0,4.3-2,6.5-6.2,6.5c-2.5,0-5.3-1-5.5-3.9h2.2c0.1,1.6,2,2.2,3.4,2.2c2.8,0,4-2,4-5v-0.9h-0.1
	c-0.8,1.5-2.4,2.5-4.1,2.4c-3.9,0-5.9-3.1-5.9-6.7c0-3.1,1.5-7,6.1-7c1.6-0.1,3.1,0.8,3.9,2.2l0,0v-1.9h2L143.5,114.7z M141.4,108.9
	c0-2.3-1-4.7-3.8-4.7s-3.9,2.3-3.9,4.8c0,2.4,0.9,5,3.7,5S141.4,111.4,141.4,108.9L141.4,108.9z"/>
<path class="st0" d="M167.1,103c-0.5-2.6-2.6-3.9-5.1-3.9c-4.3,0-6.2,3.6-6.2,7.4c0,4.2,1.8,7.7,6.2,7.7c3.2,0,5-2.2,5.3-5.3h2.4
	c-0.5,4.6-3.3,7.3-7.9,7.3c-5.7,0-8.4-4.2-8.4-9.5s3-9.6,8.7-9.6c3.8,0,7,2,7.5,5.9L167.1,103z"/>
<path class="st0" d="M178.1,102.2c4.2,0,6.4,3,6.4,6.9s-2.2,6.9-6.4,6.9s-6.4-3-6.4-6.9S173.9,102.2,178.1,102.2z M178.1,114.2
	c2.3,0,4.1-1.8,4.1-5s-1.8-5-4.1-5s-4.1,1.8-4.1,5S175.8,114.2,178.1,114.2z"/>
<path class="st0" d="M187.1,102.6h2v1.9h0.1c0.9-1.5,2.6-2.3,4.3-2.2c1.6-0.2,3.1,0.8,3.6,2.2c0.9-1.4,2.5-2.3,4.2-2.2
	c2.6,0,4.4,1.1,4.4,3.8v9.7h-2.2v-8.7c0-1.6-0.4-2.9-2.6-2.9c-1.8-0.1-3.3,1.2-3.5,2.9c0,0.1,0,0.3,0,0.4v8.2h-2.2v-8.7
	c0-1.7-0.5-2.9-2.5-2.9c-1.9,0-3.4,1.5-3.5,3.4v8.2H187L187.1,102.6z"/>
<path class="st0" d="M209,102.6h2.2v1.8h0.1c0.7-1.5,2.4-2.1,4.2-2.1c4.1,0,6.1,3.2,6.1,7s-2,6.9-6,6.9c-1.7,0.1-3.3-0.7-4.3-2.1
	h-0.1v6.8H209L209,102.6z M215.1,104.2c-2.9,0-4,2.5-4,5s1.2,5,4.2,5s4-2.5,4-5.1S217.9,104.2,215.1,104.2L215.1,104.2z"/>
<path class="st0" d="M235.8,115.7c-0.5,0.3-1,0.4-1.6,0.4c-1.1,0-1.8-0.6-1.8-2c-1.2,1.3-2.9,2.1-4.7,2c-2.4,0-4.4-1.1-4.4-3.7
	c0-3,2.2-3.6,4.5-4.1c2.4-0.5,4.5-0.3,4.5-1.9c0-1.9-1.6-2.2-2.9-2.2c-1.8,0-3.2,0.6-3.3,2.5h-2.2c0.1-3.3,2.7-4.4,5.6-4.4
	c2.4,0,5,0.5,5,3.6v6.8c0,1,0,1.5,0.7,1.5c0.2,0,0.5,0,0.7-0.1L235.8,115.7z M232.3,109c-0.8,0.6-2.5,0.6-3.9,0.9s-2.7,0.8-2.7,2.4
	c0,1.4,1.2,1.9,2.6,1.9c2.9,0,4-1.8,4-3L232.3,109z"/>
<path class="st0" d="M237.8,102.6h2v2.1h0.1c0.8-1.6,2.5-2.5,4.3-2.4c3.5,0,4.6,2,4.6,4.8v8.7h-2.1v-9c0.1-1.4-0.9-2.6-2.3-2.7
	c-0.1,0-0.3,0-0.4,0c-2.6,0-3.9,1.8-3.9,4.2v7.5h-2.2V102.6z"/>
<path class="st0" d="M257.3,117.6c-1,2.6-1.9,3.5-3.8,3.5c-0.5,0-1-0.1-1.5-0.2v-2c0.4,0.2,0.8,0.3,1.3,0.3c0.8,0,1.5-0.5,1.8-1.2
	l0.9-2.2l-5.2-13.2h2.5l3.9,10.8h0.1l3.7-10.8h2.3L257.3,117.6z"/>
<rect x="13.1" y="21.3" class="st1" width="305.4" height="63"/>
<g>
	<path class="st0" d="M13.1,81.5c3.6-0.4,5.9-1.2,6.9-2.5s1.5-4.4,1.5-9.2V32.5c0-3.3-0.5-5.5-1.5-6.4c-1-1-3.2-1.5-6.7-1.8v-1.7
		h17.2l20.1,46.1l19.2-46.1h17.3v1.7c-3.2,0.2-5.3,0.9-6.2,1.9c-0.9,1-1.4,3.1-1.4,6.3v40.7c0,3.3,0.5,5.5,1.4,6.4s3,1.6,6.2,1.8
		v1.7H62.8v-1.7c3.5-0.3,5.7-1,6.5-2c0.8-1,1.3-3.5,1.3-7.4v-41l-22.2,52h-1.2L25.4,33.2v36.5c0,5,0.7,8.3,2.1,9.8
		c0.9,1,2.9,1.6,6.1,2v1.7H13.1V81.5z"/>
	<path class="st0" d="M106.2,81.5c3.5-0.3,5.8-0.8,6.9-1.7c1-0.8,1.6-3,1.6-6.6V32.5c0-3.3-0.5-5.5-1.6-6.5s-3.3-1.6-6.9-1.7v-1.7
		h25.7v1.7c-3.5,0.2-5.8,0.8-6.9,1.7s-1.6,3.1-1.6,6.5v40.7c0,3.5,0.5,5.7,1.6,6.6s3.3,1.4,6.9,1.7v1.7h-25.7V81.5z"/>
	<path class="st0" d="M150.1,81.5c3.2-0.4,5.3-1,6.2-1.8c0.9-0.8,1.4-3,1.4-6.5V32.5c0-3.2-0.5-5.4-1.4-6.3s-3-1.6-6.2-1.9v-1.7
		h24.5v1.7c-3.2,0.2-5.3,0.7-6.4,1.7c-1.1,0.9-1.6,2.9-1.6,5.9v44c0,0.8,0.1,1.7,0.5,2.4c0.5,0.7,1.3,1.1,2.2,1.1
		c0.7,0.1,1.3,0.1,2,0.2c0.7,0,2,0,4.1,0c7.7,0,12.9-0.7,15.7-2c2.7-1.3,5.3-4.8,7.9-10.3h2.2l-4.2,15.8h-46.7L150.1,81.5z"/>
	<path class="st0" d="M212.5,81.5c3.2-0.4,5.3-1,6.2-1.8c0.9-0.8,1.4-3,1.4-6.5V32.5c0-3.2-0.5-5.4-1.4-6.3s-3-1.6-6.2-1.9v-1.7
		h46.1l0.3,13.1h-2.2c-0.7-4-1.8-6.7-3.3-7.9c-1.5-1.2-4.8-1.8-9.8-1.8h-11.8c-1.3,0-2.1,0.2-2.4,0.7c-0.3,0.8-0.5,1.6-0.4,2.4v20.4
		h13.4c3.7,0,6.1-0.6,7.1-1.7c1-1.2,1.8-3.5,2.5-7h2v21.2h-2c-0.7-3.5-1.5-5.9-2.5-7c-1-1.1-3.3-1.7-7-1.7H229v22.7
		c0,1.8,0.5,2.9,1.6,3.2c1.1,0.3,4.3,0.5,9.8,0.5c5.9,0,10.2-0.7,13-2c2.8-1.3,5.3-4.6,7.6-9.9h2.4l-3.9,15.4h-46.9L212.5,81.5z"/>
	<path class="st0" d="M281.5,64.7c1.2,3.5,2.9,6.9,5.2,9.8c3,4,7.8,6.4,12.8,6.4c2.7,0,5.2-0.9,7.2-2.8c2.1-2,3.2-4.8,3.1-7.7
		c0-2.9-1.1-5.7-3.1-7.8c-2.6-2.4-5.4-4.5-8.4-6.3l-7.4-4.9c-2-1.3-3.8-2.8-5.3-4.5c-2.4-2.6-3.7-6-3.7-9.5
		c-0.1-4.3,1.4-8.4,4.4-11.5c2.9-3.1,6.8-4.6,11.6-4.6c2.4,0.1,4.9,0.6,7.1,1.6c1.6,0.6,3.2,1.1,4.8,1.5c0.8,0.1,1.6-0.2,2.2-0.8
		c0.5-0.7,0.8-1.5,1-2.3h1.8l1.9,19.5h-2.1c-1.4-5.9-3.7-9.9-6.8-12.3c-2.6-2.1-5.9-3.4-9.2-3.5c-2.3,0-4.5,0.8-6.2,2.2
		c-1.8,1.5-2.8,3.8-2.6,6.1c-0.1,2.2,0.6,4.3,2,6c1.8,2.1,3.9,3.9,6.3,5.3l7.6,5c4.8,3.1,8.1,5.9,10.1,8.5c1.9,2.7,3,6,2.9,9.3
		c0.1,4.6-1.8,8.9-5.2,12c-3.4,3.2-7.8,4.8-13.2,4.8c-2.9,0-5.7-0.6-8.4-1.6c-1.6-0.7-3.3-1.2-5-1.6c-0.8-0.1-1.6,0.3-2.1,1
		c-0.3,0.7-0.6,1.4-0.7,2.1H282l-2.6-19.5L281.5,64.7z"/>
</g>
</svg>
