<?xml version="1.0" encoding="utf-8"?>
<!-- Generator: Adobe Illustrator 22.1.0, SVG Export Plug-In . SVG Version: 6.00 Build 0)  -->
<svg version="1.1" id="Layer_1" xmlns="http://www.w3.org/2000/svg" xmlns:xlink="http://www.w3.org/1999/xlink" x="0px" y="0px"
	 viewBox="0 0 980 688" style="enable-background:new 0 0 980 688;" xml:space="preserve">
<style type="text/css">
	.st0{fill:#262626;}
	.st1{fill:#333231;}
	.st2{fill:#595857;}
	.st3{fill:#7F7D77;}
	.st4{fill:#A5A097;}
	.st5{font-family:'MyriadPro-Regular';}
	.st6{font-size:21.3585px;}
	.st7{font-family:'Arial-BoldItalicMT';}
	.st8{font-size:23px;}
</style>
<g>
	<circle class="st0" cx="239.5" cy="229.3" r="58.3"/>
	<path class="st1" d="M344.7,162.9c24.2,0,68.7,34,68.7,58.1c4.7,10.7,1.4,24.2-6,34.2c-8.9,12.1-46.6,36-62.7,36
		c-9.6,0-43.4,11.3-50.6,6.1c-8.4,0-16.1-7.3-20.3-15.8c-3.9-8-8.3-44.8-8.3-54.4c0-9.6,4.4-46.4,8.3-54.4
		c4.2-8.6,11.9-15.8,20.3-15.8C301.3,151.6,335.1,162.9,344.7,162.9z"/>
	<path class="st2" d="M449,154.9c16.1,0,79,41.8,79,57.9c9.3,10.7,7.9,29.2-4,38.9c-5.1,8.6-64.3,43.2-75,43.2
		c-6.4,0-62.1,26.7-66.9,23.3c-11.8,3.6-25.7-5.4-27.5-18.6c-3.5-4.8-5.5-68.3-5.5-74.7s2.1-69.9,5.5-74.7
		c1.8-13.3,15.7-22.2,27.5-18.6C386.9,128.2,442.6,154.9,449,154.9z"/>
	<path class="st3" d="M553.3,146.9c8.1,0,89.4,49.7,89.4,57.8c14,10.7,13.2,33.4-2,43.6c-2.5,4.3-82,50.4-87.4,50.4
		c-3.2,0-80.9,42.2-83.3,40.4c-15.2,7.2-33.8-4-34.7-21.4c-1.7-2.4-2.8-91.7-2.8-94.9c0-3.2,1-92.5,2.8-94.9
		c0.9-17.4,19.5-28.6,34.7-21.4C472.4,104.7,550.1,146.9,553.3,146.9z"/>
	<path class="st4" d="M757.3,196.4c18.6,10.8,18.6,37.6,0,48.4l-99.7,57.6l-99.7,57.6c-18.6,10.8-41.9-2.7-41.9-24.2V220.6V105.5
		c0-21.5,23.3-34.9,41.9-24.2l99.7,57.6L757.3,196.4z"/>
</g>
<g>
	<g>
		<path class="st0" d="M257.7,546.5h-24v-38.2l1.6-39h-0.6l-27.3,45.8h-14.4l-27.2-45.2h-0.5l1.7,37.6v39h-24V429.1h25.6l32.2,55.6
			l32.2-55.6h24.6V546.5z"/>
		<path class="st0" d="M306,429.1v117.4h-24.8V429.1H306z"/>
		<path class="st0" d="M386.8,485.1l38,61.3h-29l-25.2-41.1h-0.5l-24.8,41.1h-27.4l37.9-61.4l-34.6-56h29.1l21.8,35.1h0.5l21.7-35.1
			h27.3L386.8,485.1z"/>
		<path class="st0" d="M521.1,452.2c-9.1-3.1-17.6-5-26.8-5c-25.4,0-40.2,15.6-40.2,40.4c0,24.5,13.9,40.4,41.8,40.4
			c9.1,0,17.2-1.3,27.4-4.4v21.3c-9.8,2.6-19.9,4.2-32.4,4.2c-41.7,0.3-63-24.9-62.8-60.9c0-13.9,2.9-25.5,8.6-34.7
			c5.7-9.2,13.1-16.1,22.5-20.5c9.4-4.3,19.6-6.5,30.9-6.5c11.5,0,21.8,1.4,30.9,4.2V452.2z"/>
		<polygon class="st0" points="599,429.1 570.1,429.1 529.9,546.5 554.7,546.5 583.4,453.3 583.9,453.3 613.1,546.5 639.1,546.5 		
			"/>
		<path class="st0" d="M718.1,453.5c-9.2-3.7-20.2-6.4-28.5-6.4c-10.2,0-16.8,3.8-16.8,12.4c0,6.2,3.9,10.2,9.1,12.9
			c2.6,1.4,6.2,2.9,10.8,4.7c6.5,2.5,11.8,4.9,15.8,7.2c4.1,2.4,7.5,5.8,10.5,10.3c3,4.6,4.4,10.5,4.4,17.8
			c0.3,25.4-19.8,36.8-43.2,36.7c-11.1,0-22.8-2.5-32.9-6.9v-22.7c5.2,2.6,10.8,4.7,16.8,6.4c5.9,1.6,11.3,2.5,16.3,2.5
			c10.9,0,17.9-4.2,17.9-13.8c0-6.4-3.9-10.7-9.2-13.4c-2.6-1.4-6.4-3-11-4.8c-6.4-2.5-11.6-4.9-15.7-7.3
			c-4.1-2.4-7.5-5.8-10.4-10.3c-2.9-4.5-4.3-10.3-4.3-17.5c-0.2-24.6,18.8-34.7,41.5-34.6c9.8,0,20,1.8,28.9,4.9V453.5z"/>
		<path class="st0" d="M788.4,546.5h-24.8v-95.9h-34v-21.5h92.6v21.5h-33.8V546.5z"/>
	</g>
</g>
<text transform="matrix(1 0 0 1 836.1553 445.5078)" class="st0 st5 st6">TM</text>
<g>
	<path class="st0" d="M197.9,585.4H186v-26.9h10.9c7.8,0,11.4,2.2,11.4,6.8c0,2.1-1.3,4.7-4.7,5.5c3.4,0.3,6.7,2.7,6.7,6.3
		C210.2,583.6,205.1,585.4,197.9,585.4z M197.5,564.4h-4.3v4h4.6c2.2,0,3.1-0.8,3.1-2.1C200.9,564.8,199.6,564.4,197.5,564.4z
		 M199.1,574.2h-5.9v5.2h5.8c2.5,0,3.8-1,3.8-2.6C202.8,575,201.4,574.2,199.1,574.2z"/>
	<path class="st0" d="M226.8,558.5h7.3v20.8h13.1v6.1h-20.4V558.5z"/>
	<path class="st0" d="M275.5,586c-8.1,0-13-3.5-13-11.4v-16.1h7.3v16.8c0,3.4,2.4,4.8,5.9,4.8c3.8,0,6-1.4,6-4.8v-16.9h7.2v16.2
		C288.8,582,283.8,586,275.5,586z"/>
	<path class="st0" d="M305.3,558.5h20.2v6.1h-12.9v4h11.3v6.1h-11.3v4.6h13.1v6.1h-20.4V558.5z"/>
	<path class="st0" d="M353.2,577.4h-2.6v8h-7.3v-26.9h9.9c7.5,0,12.9,2.3,12.9,9C366.2,573.7,361.6,577.4,353.2,577.4z M353,564.5
		h-2.4v6.9h2.5c3.6,0,5.4-1.2,5.4-3.6C358.6,565.2,356.2,564.5,353,564.5z"/>
	<path class="st0" d="M399,585.4l-6.1-9.3h-4.2v9.3h-7.3v-26.9h11.7c8,0,11.7,2.8,11.7,7.7c0,3.1-2,5.7-5.5,7.3l8,11.8H399z
		 M397.4,567.2c0-2.1-1.8-2.7-4.2-2.7h-4.6v5.8h4.4C395.8,570.2,397.4,569.3,397.4,567.2z"/>
	<path class="st0" d="M429.8,558.5v26.9h-7.3v-26.9H429.8z"/>
</g>
<path class="st0" d="M455.4,569.6L455.4,569.6l-0.1,15.8h-7.2v-26.9h7.6l11.8,15h0.1v-15h7.2v26.9H468L455.4,569.6z"/>
<path class="st0" d="M506.7,585.4h-7.3v-20.8h-9v-6.1h25.2v6.1h-9V585.4z"/>
<path class="st0" d="M563.2,585.4l-6.1-9.3h-4.2v9.3h-7.3v-26.9h11.7c8,0,11.7,2.8,11.7,7.7c0,3.1-2,5.7-5.5,7.3l8,11.8H563.2z
	 M561.6,567.2c0-2.1-1.8-2.7-4.2-2.7h-4.6v5.8h4.4C560,570.2,561.6,569.2,561.6,567.2z"/>
<path class="st0" d="M586.7,558.5h20.2v6.1H594v4h11.3v6.1H594v4.6h13.1v6.1h-20.4V558.5z"/>
<path class="st0" d="M628.8,580.6l-1.7,4.8h-7.3l10.6-26.9h8.5l10.6,26.9h-7.6l-1.7-4.8l-2.2-6l-3.5-8.7h-0.1l-3.3,8.7L628.8,580.6z
	"/>
<path class="st0" d="M664.9,558.5h7.3v20.8h13.1v6.1h-20.4V558.5z"/>
<path class="st0" d="M708.3,558.5v26.9H701v-26.9H708.3z"/>
<path class="st0" d="M740.2,585.4h-7.3v-20.8h-9v-6.1h25.2v6.1h-9V585.4z"/>
<path class="st0" d="M761.6,558.5h8.2l6.2,10.2h0.2l6.1-10.2h7.6l-10.6,16.6v10.3h-7.2v-10.3L761.6,558.5z"/>
<text transform="matrix(1 0 0 1 145 572.333)" class="st0 st7 st8">by</text>
</svg>
