<svg id="Ebene_1" data-name="Ebene 1" xmlns="http://www.w3.org/2000/svg" viewBox="0 0 672.99 294.88"><defs><style>.cls-1{fill:#262626;}</style></defs><title>R7LOGOfinal01_17-2_#262626</title><path class="cls-1" d="M331.15,615.79H317.8l-14-25.2c-1.89.1-2.69.1-4.08.1h-3.49v25.1H284.44V549.35h15.24c8.87,0,14.14,1.49,18.53,5.18a20.53,20.53,0,0,1,7.07,15.74,19.52,19.52,0,0,1-10,17.33ZM300.47,580c9.06,0,13.25-3.19,13.25-10a9.72,9.72,0,0,0-3.09-7.37c-2.09-1.89-5.08-2.59-10.16-2.59h-4.28V580Z" transform="translate(-284.44 -322)"/><path class="cls-1" d="M351.1,560.21v16.44h22.51v11H351.1v17.23h26.2v11h-38V549.35H376.4v10.86Z" transform="translate(-284.44 -322)"/><path class="cls-1" d="M400.53,599.45l-6,16.34H382.2L407,549.35h14.44l24.8,66.44H433.8l-19.62-54-9.66,26.69" transform="translate(-284.44 -322)"/><path class="cls-1" d="M464.9,604.83h24.4v11H453.15V549.35H464.9Z" transform="translate(-284.44 -322)"/><path class="cls-1" d="M508.55,615.79H496.8V549.35h11.75Z" transform="translate(-284.44 -322)"/><path class="cls-1" d="M543.34,615.79H531.59V560.21H515.35V549.35h44.23v10.86H543.34Z" transform="translate(-284.44 -322)"/><path class="cls-1" d="M562.19,549.35h13.15l14.74,26.89,14.74-26.89H618L596,588.3v27.49H584.21V588.3Z" transform="translate(-284.44 -322)"/><path class="cls-1" d="M664.33,560.91c-3.49-5-7.37-7.17-12.55-7.17-7.37,0-13,5.28-13,12.15,0,4.88,3.49,8.67,10.46,11.45l6.57,2.49c10.46,4.08,15.24,9.46,15.24,17.33,0,11.16-9,19.72-20.62,19.72-10,0-17.13-5.78-19.82-16l5.68-1.59c2.19,7.87,7.07,12.05,14.34,12.05a14.16,14.16,0,0,0,14.54-14.14c0-5.68-3.29-9.06-12.35-12.65L646.4,582c-9.16-3.59-13.45-8.77-13.45-16.24,0-10.06,8.07-17.53,19-17.53,7.37,0,12.85,3.09,17,9.56Z" transform="translate(-284.44 -322)"/><path class="cls-1" d="M707.6,554.73v24.6h24.3v5.48H707.6v25.5H736v5.48H701.72V549.35h33.17v5.38Z" transform="translate(-284.44 -322)"/><path class="cls-1" d="M806.24,549.35h6.08l-22.61,66.44h-7.17l-22.71-66.44H766L786.12,609Z" transform="translate(-284.44 -322)"/><path class="cls-1" d="M844.73,554.73v24.6H869v5.48h-24.3v25.5h28.39v5.48H838.85V549.35H872v5.38Z" transform="translate(-284.44 -322)"/><path class="cls-1" d="M909.11,615.79h-5.88V549.35h5.88l42.43,57.37V549.35h5.88v66.44h-5.88l-42.43-57.37Z" transform="translate(-284.44 -322)"/><path class="cls-1" d="M602.24,428.9l7.64,15.67c6.19,9.08,8.43,11.06,14.74,11.06h1.45l3-.12,36.19-69.12H621.55a30.64,30.64,0,0,1,3.33,14.48C624.88,415.74,616.46,425.35,602.24,428.9Z" transform="translate(-284.44 -322)"/><path class="cls-1" d="M718.73,424l-13.87-60.78A18.22,18.22,0,0,0,695,350.85l-56.17-27a18.22,18.22,0,0,0-15.81,0l-56.17,27A18.22,18.22,0,0,0,557,363.21L543.13,424a18.22,18.22,0,0,0,3.52,15.41l38.87,48.74A18.22,18.22,0,0,0,599.76,495H662.1a18.22,18.22,0,0,0,14.24-6.86l38.87-48.74A18.22,18.22,0,0,0,718.73,424Zm-37.2-37.87-43,84h-12c-10.53-.09-20.88-1.24-27.79-15.53l-12-25.14L580.33,415l5.46,0h8.16c9.87,0,16.72-4.48,16.72-15,0-10.27-7.37-13.82-16.72-13.82H580.33V371.9h13.62c10.74,0,19.73,3.75,25.2,10.76V371.9h62.39Z" transform="translate(-284.44 -322)"/></svg>