<?xml version="1.0"?>
<svg width="497" height="141" xmlns="http://www.w3.org/2000/svg" xmlns:svg="http://www.w3.org/2000/svg">
 <g class="layer">
  <title>Layer 1</title>
  <path d="m0,0l497,0l0,141l-497,0l0,-141z" fill="#f2f2f2" id="svg_1"/>
  <path d="m0,0l497,0l0,141l-497,0l0,-141z" fill="#fff" id="svg_2"/>
  <g clip-rule="evenodd" fill-rule="evenodd" id="svg_3">
   <path d="m50.5752,99.8815c16.194,0 26.938,-8.333 26.938,-21.064c0,-15.453 -12.795,-17.454 -22.418,-19.164c-5.79,-1.028 -10.45,-1.838 -10.45,-5.305c0,-2.822 2.262,-4.489 5.625,-4.489c3.803,0 6.419,1.81 6.419,5.7l19.65,0c-0.237,-12.346 -10.294,-20.599 -25.809,-20.599c-15.611,0 -26.016,7.885 -26.016,20.095c0,14.778 12.521,17.629 21.969,19.162c5.854,0.969 10.466,1.972 10.466,5.484c0,3.151 -2.911,4.714 -5.977,4.714c-3.982,0 -7.083,-2.052 -7.083,-6.506l-20.199,0c0.191,13.204 10.283,21.972 26.885,21.972zm103.4278,-32.461c0,18.982 -13.319,32.526 -31.946,32.526c-5.507,0 -10.553,-1.449 -14.852,-4.047l0,23.9865l-20.7438,0l0,-82.9275l14.2678,0l2.628,4.84c5.011,-4.333 11.461,-6.838 18.7,-6.838c18.627,0 31.946,13.476 31.946,32.46zm-21.115,-0.004c0,-7.999 -5.777,-13.94 -13.638,-13.94s-13.639,5.941 -13.639,13.94c0,8.006 5.778,13.948 13.639,13.948c7.811,0 13.638,-5.942 13.638,-13.948zm64.141,-30.75c-7.255,0 -12.487,2.083 -16.782,7.052l-3.273,-6.76l-14.062,0l0,60.928l20.989,0l0,-30.986c0,-7.769 3.112,-11.03 10.542,-11.03l8.142,0l0,-19.204l-5.556,0zm13.707,-7.33l20.66,0l0,-17.813l-20.66,0l0,17.813zm-0.16,68.546l20.984,0l0,-60.928l-20.984,0l0,60.928zm70.666,-62.724c-7.877,0 -14.643,3.026 -19.177,8.081l-2.884,-6.281l-14.718,0l0,60.928l20.985,0l0,-32.539c0,-7.754 3.76,-12.322 10.305,-12.322c5.282,0 7.948,3.518 7.948,10.606l0,34.255l20.985,0l0,-37.153c0,-15.521 -9.295,-25.575 -23.444,-25.575zm98.583,1.8l0,54.158c0,19.1435 -12.536,31.0035 -32.659,31.0035c-17.285,0 -29.387,-8.715 -32.194,-23.1535l20.249,0c1.457,4.0725 6.655,6.2655 11.75,6.2655c7.034,0 12.686,-4.47 12.686,-11.7155l0,-1.816c-4.581,2.907 -10.016,4.577 -15.901,4.577c-17.464,0 -30.447,-12.998 -30.447,-30.63c0,-17.371 12.983,-30.64 30.447,-30.64c7.377,0 14.055,2.647 19.219,7.061l2.662,-5.11l14.188,0zm-19.623,28.689c0,-7.693 -5.408,-13.279 -12.96,-13.279c-7.536,0 -13.005,5.586 -13.005,13.279c0,7.765 5.404,13.349 13.002,13.349c7.536,0 12.963,-5.584 12.963,-13.349z" fill="#dfab1c" id="svg_4"/>
   <path d="m399.482,97.8107l68.758,0l0,-15.439l-68.758,0l0,7.719l0,7.72z" fill="#dfab1c" id="svg_5"/>
  </g>
 </g>
</svg>