<?xml version="1.0" encoding="utf-8"?>
<!-- Generator: Adobe Illustrator 21.1.0, SVG Export Plug-In . SVG Version: 6.00 Build 0)  -->
<svg version="1.1" xmlns="http://www.w3.org/2000/svg" xmlns:xlink="http://www.w3.org/1999/xlink" x="0px" y="0px"
	 viewBox="0 0 1283.1 553.8" enable-background="new 0 0 1283.1 553.8" xml:space="preserve">
<g id="Layer_1" display="none">
	
		<image display="inline" overflow="visible" opacity="0.24" width="1920" height="1200" xlink:href="DE5270341A265DC5.jpg"  transform="matrix(1 0 0 1 -1468.4718 -946.392)">
	</image>
</g>
<g id="Layer_2">
</g>
<g id="Layer_3">
	<g>
		<g>
			<defs>
				<path id="SVGID_1_" d="M-1019.6,319.6c-5.1,0-7.2-3.1-7.2-3.1c-0.3-1.4-0.8-21.7-0.9-42c-0.2-21.1,0-42.1,1-42.2
					c5.9-11.1,24.9-33.6,24.9-33.6c-35.4,7-54.7,30.1-54.7,30.1c-5.7-4.5-17.3-3.7-17.3-3.7c5.4,3,10.9,11.7,10.9,18.9v71
					c0,0-11.9,10.5-21,10.5c-5.4,0-8.7-3-10.6-5.4c-1.3-1.7-1.8-3.1-1.8-3.1v-87.7c-1.1,0.8-2.7,1.5-4.4,1.5c-1.9,0-4-1-5.3-3.8
					c-1-2.2-1.7-5.4-1.7-10.1c0-16.2,18.3-26.9,18.3-26.9c-23.2,6.2-44.8,18.2-73.5,51.1c-28.7,32.9-23.2,60-23.2,60
					s7.9-18.7,27-38.4c9-9.3,15.8-12.4,20.4-12.5c5.1,0,7.6,3.8,7.6,7.2v66.8c0,6.6-4.2,8-8.2,8c-3.3-0.1-6.4-1.2-6.4-1.2
					c19.5,28.4,66.3,32.4,66.3,32.4l20.5-21.9l0.5,0.4l18.8,16c34.4-20.4,50.9-58.3,50.9-58.3
					C-1004,315.8-1013.8,319.6-1019.6,319.6"/>
			</defs>
			<clipPath id="SVGID_2_">
				<use xlink:href="#SVGID_1_"  overflow="visible"/>
			</clipPath>
			<g clip-path="url(#SVGID_2_)">
				<defs>
					<rect id="SVGID_3_" x="-1264.1" y="95" width="363.4" height="363.4"/>
				</defs>
				<clipPath id="SVGID_4_">
					<use xlink:href="#SVGID_3_"  overflow="visible"/>
				</clipPath>
				<rect x="-1188.5" y="187.9" clip-path="url(#SVGID_4_)" fill="#FFFFFF" width="201.8" height="177.4"/>
			</g>
		</g>
		<g>
			<defs>
				<path id="SVGID_5_" d="M-1082.2,139.3c36.4,0,70.7,14.3,96.5,40.3c25.8,26,40,60.5,40,97.3s-14.2,71.3-40,97.3
					c-25.8,26-60,40.3-96.5,40.3s-70.7-14.3-96.5-40.3c-25.8-26-40-60.5-40-97.3s14.2-71.3,40-97.3
					C-1152.9,153.6-1118.7,139.3-1082.2,139.3 M-1082.2,133c-78.8,0-142.7,64.4-142.7,143.9s63.9,143.9,142.7,143.9
					s142.7-64.4,142.7-143.9S-1003.4,133-1082.2,133"/>
			</defs>
			<clipPath id="SVGID_6_">
				<use xlink:href="#SVGID_5_"  overflow="visible"/>
			</clipPath>
			<g clip-path="url(#SVGID_6_)">
				<defs>
					<rect id="SVGID_7_" x="-1264.1" y="95" width="363.4" height="363.4"/>
				</defs>
				<clipPath id="SVGID_8_">
					<use xlink:href="#SVGID_7_"  overflow="visible"/>
				</clipPath>
				<rect x="-1227" y="131" clip-path="url(#SVGID_8_)" fill="#FFFFFF" width="289.5" height="291.9"/>
			</g>
		</g>
	</g>
	<rect x="-855.5" y="194.7" fill="none" width="475.6" height="71.4"/>
	<text transform="matrix(1 0 0 1 -855.5255 257.4075)"><tspan x="0" y="0" fill="#FFFFFF" font-family="'BrutalType-Light'" font-size="92px" letter-spacing="26">UNREA</tspan><tspan x="430.1" y="0" fill="#FFFFFF" font-family="'BrutalType-Light'" font-size="92px" letter-spacing="9">L</tspan></text>
	<rect x="-856.4" y="293" fill="none" width="483" height="108"/>
	<text transform="matrix(1 0 0 1 -856.3944 355.7643)"><tspan x="0" y="0" fill="#FFFFFF" font-family="'BrutalType-Light'" font-size="92px" letter-spacing="30">ENGIN</tspan><tspan x="431.2" y="0" fill="#FFFFFF" font-family="'BrutalType-Light'" font-size="92px" letter-spacing="9">E</tspan></text>
	<g>
		<g>
			<defs>
				<path id="SVGID_9_" d="M336.5,319.6c-5.1,0-7.2-3.1-7.2-3.1c-0.3-1.4-0.8-21.7-0.9-42c-0.2-21.1,0-42.1,1-42.2
					c5.9-11.1,24.9-33.6,24.9-33.6c-35.4,7-54.7,30.1-54.7,30.1c-5.7-4.5-17.3-3.7-17.3-3.7c5.4,3,10.9,11.7,10.9,18.9v71
					c0,0-11.9,10.5-21,10.5c-5.4,0-8.7-3-10.6-5.4c-1.3-1.7-1.8-3.1-1.8-3.1v-87.7c-1.1,0.8-2.7,1.5-4.4,1.5c-1.9,0-4-1-5.3-3.8
					c-1-2.2-1.7-5.4-1.7-10.1c0-16.2,18.3-26.9,18.3-26.9c-23.2,6.2-44.8,18.2-73.5,51.1c-28.7,32.9-23.2,60-23.2,60
					s7.9-18.7,27-38.4c9-9.3,15.8-12.4,20.4-12.5c5.1,0,7.6,3.8,7.6,7.2v66.8c0,6.6-4.2,8-8.2,8c-3.3-0.1-6.4-1.2-6.4-1.2
					c19.5,28.4,66.3,32.4,66.3,32.4l20.5-21.9l0.5,0.4l18.8,16c34.4-20.4,50.9-58.3,50.9-58.3C352.1,315.8,342.3,319.6,336.5,319.6"
					/>
			</defs>
			<use xlink:href="#SVGID_9_"  overflow="visible" fill-rule="evenodd" clip-rule="evenodd" fill="#DFAC26"/>
			<clipPath id="SVGID_10_">
				<use xlink:href="#SVGID_9_"  overflow="visible"/>
			</clipPath>
			<g clip-path="url(#SVGID_10_)">
				<defs>
					<rect id="SVGID_11_" x="92" y="95" width="363.4" height="363.4"/>
				</defs>
				<use xlink:href="#SVGID_11_"  overflow="visible" fill="#DFAC26"/>
				<clipPath id="SVGID_12_">
					<use xlink:href="#SVGID_11_"  overflow="visible"/>
				</clipPath>
				<rect x="167.7" y="187.9" clip-path="url(#SVGID_12_)" fill="#DFAC26" width="201.8" height="177.4"/>
			</g>
		</g>
		<g>
			<defs>
				<path id="SVGID_13_" d="M273.9,139.3c36.4,0,70.7,14.3,96.5,40.3c25.8,26,40,60.5,40,97.3s-14.2,71.3-40,97.3
					c-25.8,26-60,40.3-96.5,40.3s-70.7-14.3-96.5-40.3c-25.8-26-40-60.5-40-97.3s14.2-71.3,40-97.3
					C203.2,153.6,237.5,139.3,273.9,139.3 M273.9,133c-78.8,0-142.7,64.4-142.7,143.9s63.9,143.9,142.7,143.9
					s142.7-64.4,142.7-143.9S352.7,133,273.9,133"/>
			</defs>
			<use xlink:href="#SVGID_13_"  overflow="visible" fill-rule="evenodd" clip-rule="evenodd" fill="#DFAC26"/>
			<clipPath id="SVGID_14_">
				<use xlink:href="#SVGID_13_"  overflow="visible"/>
			</clipPath>
			<g clip-path="url(#SVGID_14_)">
				<defs>
					<rect id="SVGID_15_" x="92" y="95" width="363.4" height="363.4"/>
				</defs>
				<use xlink:href="#SVGID_15_"  overflow="visible" fill="#DFAC26"/>
				<clipPath id="SVGID_16_">
					<use xlink:href="#SVGID_15_"  overflow="visible"/>
				</clipPath>
				<rect x="129.2" y="131" clip-path="url(#SVGID_16_)" fill="#DFAC26" width="289.5" height="291.9"/>
			</g>
		</g>
	</g>
	<rect x="500.6" y="194.7" fill="none" width="475.6" height="71.4"/>
	<text transform="matrix(1 0 0 1 500.6101 257.4075)"><tspan x="0" y="0" fill="#DFAC26" font-family="'BrutalType-Light'" font-size="92px" letter-spacing="26">UNREA</tspan><tspan x="430.1" y="0" fill="#DFAC26" font-family="'BrutalType-Light'" font-size="92px" letter-spacing="9">L</tspan></text>
	<rect x="499.7" y="293" fill="none" width="483" height="108"/>
	<text transform="matrix(1 0 0 1 499.7412 355.7643)"><tspan x="0" y="0" fill="#DFAC26" font-family="'BrutalType-Light'" font-size="92px" letter-spacing="30">ENGIN</tspan><tspan x="431.2" y="0" fill="#DFAC26" font-family="'BrutalType-Light'" font-size="92px" letter-spacing="9">E</tspan></text>
</g>
</svg>
