<?xml version="1.0"?>
<svg width="497" height="141" xmlns="http://www.w3.org/2000/svg" xmlns:svg="http://www.w3.org/2000/svg">
 <g class="layer">
  <title>Layer 1</title>
  <path d="m0,0l497,0l0,141l-497,0l0,-141z" fill="#f2f2f2" id="svg_1"/>
  <path d="m-4.000005,-1.999992l505.000008,0l0,145.999992l-505.000008,0l0,-145.999992z" fill="#fff" id="svg_2"/>
  <g id="svg_51">
   <polygon fill="#dfab1c" id="svg_52" points="10.451969146728516,42.95709228515625 6.431770324707031,86.9051513671875 -1.6999950408935547,84.34687805175781 -1.6999950408935547,46.52043151855469 "/>
   <polygon fill="#dfab1c" id="svg_53" points="197.84805297851562,42.95709228515625 201.8682403564453,86.9051513671875 210.00001525878906,84.34687805175781 210.00001525878906,46.52043151855469 "/>
   <g id="svg_54">
    <polygon fill="#dfab1c" id="svg_55" points="21.598886489868164,33.91163635253906 10.451969146728516,103.44281005859375 55.95330810546875,129.20864868164062 21.872987747192383,33.91163635253906 "/>
    <polygon fill="#dfab1c" id="svg_56" points="21.872987747192383,33.91163635253906 55.95330810546875,129.20864868164062 56.044677734375,129.29998779296875 104.1957015991211,118.24444580078125 104.1957015991211,23.312942504882812 "/>
    <polygon fill="#dfab1c" id="svg_57" points="186.79249572753906,33.91163635253906 104.1957015991211,23.312942504882812 104.1957015991211,118.24444580078125 152.25534057617188,129.29998779296875 153.1690216064453,128.8431396484375 186.88388061523438,34.45985412597656 "/>
    <polygon fill="#dfab1c" id="svg_58" points="186.88388061523438,34.45985412597656 153.1690216064453,128.8431396484375 197.84805297851562,103.44281005859375 "/>
   </g>
  </g>
  <g id="svg_31">
   <g id="svg_32">
    <path d="m239.570375,129.329355l-2.501802,-5.652219l-13.71358,0l-2.501802,5.652219l-1.853186,0l10.285185,-22.886853l1.945846,0l10.285185,22.886853l-1.945846,0zm-3.243076,-7.227427l-6.115515,-13.898899l-6.115515,13.898899l12.231031,0l-0.000001,0z" fill="#dfab1c" id="svg_33"/>
    <path d="m265.329667,110.89015c-1.667868,-2.68712 -4.354988,-3.057758 -6.949449,-3.150417c-2.68712,0 -6.949449,1.019253 -6.949449,4.632966c0,2.872439 3.150417,3.613714 7.042109,4.354988c4.447648,0.833934 8.987954,1.667868 8.987954,6.578812c0,5.188922 -5.188922,6.393493 -9.080614,6.393493c-3.521054,0 -7.598065,-1.482549 -9.358592,-5.003604l1.575209,-0.741275c1.38989,2.77978 5.003604,4.16967 7.783383,4.16967c2.77978,0 7.320087,-0.741275 7.320087,-4.818285c0,-3.428395 -3.799032,-4.16967 -7.505405,-4.910944c-4.16967,-0.833934 -8.431999,-1.667868 -8.431999,-5.930197c-0.092659,-4.818285 4.910944,-6.300834 8.709976,-6.300834c3.243076,0 6.115515,0.555956 8.339339,3.891692l-1.482549,0.833934l0,0.000001z" fill="#dfab1c" id="svg_34"/>
    <path d="m292.38619,110.89015c-1.667868,-2.68712 -4.354988,-3.057758 -6.949449,-3.150417c-2.68712,0 -6.949449,1.019253 -6.949449,4.632966c0,2.872439 3.150417,3.613714 7.042109,4.354988c4.447648,0.833934 8.987954,1.667868 8.987954,6.578812c0,5.188922 -5.188922,6.393493 -9.080614,6.393493c-3.521054,0 -7.598065,-1.482549 -9.358592,-5.003604l1.575209,-0.741275c1.38989,2.77978 5.003604,4.16967 7.783383,4.16967c2.77978,0 7.320087,-0.741275 7.320087,-4.818285c0,-3.428395 -3.799032,-4.16967 -7.505405,-4.910944c-4.16967,-0.833934 -8.431999,-1.667868 -8.431999,-5.930197c-0.092659,-4.818285 4.910944,-6.300834 8.709976,-6.300834c3.243076,0 6.115515,0.555956 8.339339,3.891692l-1.482549,0.833934l0,0.000001z" fill="#dfab1c" id="svg_35"/>
    <path d="m326.762799,117.932259c0,6.022856 -3.891692,11.767734 -11.582416,11.767734c-7.690724,0 -11.582416,-5.837537 -11.582416,-11.860394c0,-6.115515 3.799032,-11.767734 11.582416,-11.767734c7.783383,0 11.675075,5.652219 11.582416,11.860394zm-21.311645,0c0,5.188922 3.335736,10.192526 9.821888,10.192526c6.578812,0 9.821888,-5.003604 9.821888,-10.192526c0,-5.281581 -3.243076,-10.192526 -9.821888,-10.192526c-6.578812,0 -9.821888,4.725626 -9.821888,10.192526z" fill="#dfab1c" id="svg_36"/>
    <path d="m356.321124,126.178938c-2.316483,2.316483 -5.374241,3.428395 -8.339339,3.428395c-7.690724,0 -11.767734,-5.374241 -11.767734,-11.582416c-0.092659,-6.115515 3.891692,-11.860394 11.767734,-11.860394c2.965098,0 6.022856,1.111912 8.339339,3.428395l-1.204571,1.019253c-1.945846,-1.945846 -4.540307,-2.872439 -7.134768,-2.872439c-6.671471,0 -10.099866,4.725626 -10.099866,10.192526c0.092659,5.374241 3.428395,10.007207 10.099866,10.007207c2.594461,0 5.188922,-1.019253 7.134768,-2.872439l1.204571,1.111912z" fill="#dfab1c" id="svg_37"/>
    <path d="m366.884287,129.329355l0,-22.886853l1.760527,0l0,22.886853l-1.760527,0z" fill="#dfab1c" id="svg_38"/>
    <path d="m398.295798,129.329355l-2.501802,-5.652219l-13.71358,0l-2.501802,5.652219l-1.853186,0l10.285185,-22.886853l1.945846,0l10.285185,22.886853l-1.945846,0zm-3.150417,-7.227427l-6.115515,-13.898899l-6.115515,13.898899l12.231031,0l-0.000001,0z" fill="#dfab1c" id="svg_39"/>
    <path d="m412.287356,108.017711l-8.24668,0l0,-1.575209l18.346546,0l0,1.575209l-8.24668,0l0,21.311645l-1.760527,0l0,-21.311645l-0.092659,0z" fill="#dfab1c" id="svg_40"/>
    <path d="m432.116451,129.329355l0,-22.886853l1.760527,0l0,22.886853l-1.760527,0z" fill="#dfab1c" id="svg_41"/>
    <path d="m468.160928,117.932259c0,6.022856 -3.891692,11.767734 -11.582416,11.767734s-11.582416,-5.837537 -11.582416,-11.860394c0,-6.115515 3.799032,-11.767734 11.582416,-11.767734c7.690724,0 11.582416,5.652219 11.582416,11.860394zm-21.404304,0c0,5.188922 3.335736,10.192526 9.821888,10.192526c6.578812,0 9.821888,-5.003604 9.821888,-10.192526c0,-5.281581 -3.243076,-10.192526 -9.821888,-10.192526s-9.821888,4.725626 -9.821888,10.192526z" fill="#dfab1c" id="svg_42"/>
    <path d="m479.558025,106.442502l15.381448,18.902502l0,-18.902502l1.760527,0l0,22.886853l-0.741275,0l-15.474107,-18.902502l0,18.902502l-1.760527,0l0,-22.886853l0.833934,0z" fill="#dfab1c" id="svg_43"/>
   </g>
   <g id="svg_44">
    <g id="svg_45">
     <path d="m274.50294,21.844539l7.876043,0l-28.724391,71.25502l-5.559559,0l-29.095028,-71.25502l7.876043,0l23.998765,58.560693l23.628128,-58.560693l-0.000001,0z" fill="#dfab1c" id="svg_46"/>
     <path d="m306.841044,61.224752l35.951818,31.874808l-11.02646,0l-33.913313,-30.20694l0,30.20694l-7.505405,0l0,-71.25502l28.261094,0c2.68712,0 5.188922,0.555956 7.598065,1.575209c2.409142,1.019253 4.447648,2.409142 6.208175,4.262329c1.760527,1.760527 3.150417,3.891692 4.16967,6.300834c1.019253,2.409142 1.575209,4.910944 1.575209,7.598065c0,2.68712 -0.555956,5.281581 -1.575209,7.690724c-1.019253,2.409142 -2.409142,4.447648 -4.16967,6.300834c-1.760527,1.760527 -3.799032,3.243076 -6.208175,4.262329c-2.409142,1.019253 -4.910944,1.575209 -7.598065,1.575209l-11.767734,0l0,-0.185319l0,-0.000002zm-8.987954,-7.505405l20.755689,0c1.667868,0 3.243076,-0.277978 4.725626,-0.926593c1.482549,-0.648615 2.77978,-1.482549 3.891692,-2.68712c1.111912,-1.111912 1.945846,-2.409142 2.594461,-3.891692c0.648615,-1.482549 0.926593,-3.057758 0.926593,-4.818285c0,-1.667868 -0.277978,-3.243076 -0.926593,-4.725626c-0.648615,-1.482549 -1.482549,-2.77978 -2.594461,-3.891692c-1.111912,-1.111912 -2.409142,-1.945846 -3.891692,-2.594461c-1.482549,-0.648615 -3.057758,-0.926593 -4.725626,-0.926593l-20.755689,0l0,24.462062z" fill="#dfab1c" id="svg_47"/>
     <path d="m375.408945,21.844539l7.783383,0l-24.74004,71.162361l-7.783383,0l24.74004,-71.162361z" fill="#dfab1c" id="svg_48"/>
     <path d="m404.225994,21.844539l31.318852,71.25502l-8.061361,0l-9.63657,-22.052919l-32.801401,0l-9.63657,22.052919l-8.061361,0l31.318852,-71.25502l5.559559,0zm10.285185,41.789355l-13.064965,-29.836302l-13.157624,29.836302l26.222589,0z" fill="#dfab1c" id="svg_49"/>
     <path d="m460.006908,61.224752l35.951818,31.874808l-11.02646,0l-33.913313,-30.20694l0,30.20694l-7.505405,0l0,-71.25502l28.261094,0c2.68712,0 5.188922,0.555956 7.598065,1.575209c2.409142,1.019253 4.447648,2.409142 6.208175,4.262329c1.760527,1.760527 3.150417,3.891692 4.16967,6.300834c1.019253,2.409142 1.575209,4.910944 1.575209,7.598065c0,2.68712 -0.555956,5.281581 -1.575209,7.690724c-1.019253,2.409142 -2.409142,4.447648 -4.16967,6.300834c-1.760527,1.760527 -3.799032,3.243076 -6.208175,4.262329c-2.409142,1.019253 -4.910944,1.575209 -7.598065,1.575209l-11.767734,0l0,-0.185319l0,-0.000002zm-8.987954,-7.505405l20.755689,0c1.667868,0 3.243076,-0.277978 4.725626,-0.926593c1.482549,-0.648615 2.77978,-1.482549 3.891692,-2.68712c1.111912,-1.111912 1.945846,-2.409142 2.594461,-3.891692c0.648615,-1.482549 0.926593,-3.057758 0.926593,-4.818285c0,-1.667868 -0.277978,-3.243076 -0.926593,-4.725626c-0.648615,-1.482549 -1.482549,-2.77978 -2.594461,-3.891692c-1.111912,-1.111912 -2.409142,-1.945846 -3.891692,-2.594461c-1.482549,-0.648615 -3.057758,-0.926593 -4.725626,-0.926593l-20.755689,0l0,24.462062z" fill="#dfab1c" id="svg_50"/>
    </g>
   </g>
  </g>
 </g>
</svg>