<?xml version="1.0" encoding="utf-8"?>
<!-- Generator: Adobe Illustrator 21.1.0, SVG Export Plug-In . SVG Version: 6.00 Build 0)  -->
<svg version="1.1" id="Layer_1" xmlns="http://www.w3.org/2000/svg" xmlns:xlink="http://www.w3.org/1999/xlink" x="0px" y="0px"
	 viewBox="0 0 587 409" enable-background="new 0 0 587 409" xml:space="preserve">
<g>
	<polygon fill="#262626" points="28.7,171.8 24.3,219.9 15.4,217.1 15.4,175.7 	"/>
	<polygon fill="#262626" points="233.8,171.8 238.2,219.9 247.1,217.1 247.1,175.7 	"/>
	<g>
		<polygon fill="#262626" points="40.9,161.9 28.7,238 78.5,266.2 41.2,161.9 		"/>
		<polygon fill="#262626" points="41.2,161.9 78.5,266.2 78.6,266.3 131.3,254.2 131.3,150.3 		"/>
		<polygon fill="#262626" points="221.7,161.9 131.3,150.3 131.3,254.2 183.9,266.3 184.9,265.8 221.8,162.5 		"/>
		<polygon fill="#262626" points="221.8,162.5 184.9,265.8 233.8,238 		"/>
	</g>
</g>
<g>
	<g>
		<path fill="#262626" d="M293.3,266.3l-2.7-6.1h-14.8l-2.7,6.1h-2l11.1-24.7h2.1l11.1,24.7H293.3z M289.8,258.5l-6.6-15l-6.6,15
			H289.8z"/>
		<path fill="#262626" d="M321.1,246.4c-1.8-2.9-4.7-3.3-7.5-3.4c-2.9,0-7.5,1.1-7.5,5c0,3.1,3.4,3.9,7.6,4.7
			c4.8,0.9,9.7,1.8,9.7,7.1c0,5.6-5.6,6.9-9.8,6.9c-3.8,0-8.2-1.6-10.1-5.4l1.7-0.8c1.5,3,5.4,4.5,8.4,4.5c3,0,7.9-0.8,7.9-5.2
			c0-3.7-4.1-4.5-8.1-5.3c-4.5-0.9-9.1-1.8-9.1-6.4c-0.1-5.2,5.3-6.8,9.4-6.8c3.5,0,6.6,0.6,9,4.2L321.1,246.4z"/>
		<path fill="#262626" d="M350.3,246.4c-1.8-2.9-4.7-3.3-7.5-3.4c-2.9,0-7.5,1.1-7.5,5c0,3.1,3.4,3.9,7.6,4.7
			c4.8,0.9,9.7,1.8,9.7,7.1c0,5.6-5.6,6.9-9.8,6.9c-3.8,0-8.2-1.6-10.1-5.4l1.7-0.8c1.5,3,5.4,4.5,8.4,4.5c3,0,7.9-0.8,7.9-5.2
			c0-3.7-4.1-4.5-8.1-5.3c-4.5-0.9-9.1-1.8-9.1-6.4c-0.1-5.2,5.3-6.8,9.4-6.8c3.5,0,6.6,0.6,9,4.2L350.3,246.4z"/>
		<path fill="#262626" d="M387.4,254c0,6.5-4.2,12.7-12.5,12.7c-8.3,0-12.5-6.3-12.5-12.8c0-6.6,4.1-12.7,12.5-12.7
			C383.3,241.2,387.5,247.3,387.4,254z M364.4,254c0,5.6,3.6,11,10.6,11c7.1,0,10.6-5.4,10.6-11c0-5.7-3.5-11-10.6-11
			C367.9,243,364.4,248.1,364.4,254z"/>
		<path fill="#262626" d="M419.3,262.9c-2.5,2.5-5.8,3.7-9,3.7c-8.3,0-12.7-5.8-12.7-12.5c-0.1-6.6,4.2-12.8,12.7-12.8
			c3.2,0,6.5,1.2,9,3.7l-1.3,1.1c-2.1-2.1-4.9-3.1-7.7-3.1c-7.2,0-10.9,5.1-10.9,11c0.1,5.8,3.7,10.8,10.9,10.8
			c2.8,0,5.6-1.1,7.7-3.1L419.3,262.9z"/>
		<path fill="#262626" d="M430.7,266.3v-24.7h1.9v24.7H430.7z"/>
		<path fill="#262626" d="M464.6,266.3l-2.7-6.1h-14.8l-2.7,6.1h-2l11.1-24.7h2.1l11.1,24.7H464.6z M461.2,258.5l-6.6-15l-6.6,15
			H461.2z"/>
		<path fill="#262626" d="M479.7,243.3h-8.9v-1.7h19.8v1.7h-8.9v23h-1.9V243.3z"/>
		<path fill="#262626" d="M501.1,266.3v-24.7h1.9v24.7H501.1z"/>
		<path fill="#262626" d="M540,254c0,6.5-4.2,12.7-12.5,12.7s-12.5-6.3-12.5-12.8c0-6.6,4.1-12.7,12.5-12.7
			C535.8,241.2,540,247.3,540,254z M516.9,254c0,5.6,3.6,11,10.6,11c7.1,0,10.6-5.4,10.6-11c0-5.7-3.5-11-10.6-11
			S516.9,248.1,516.9,254z"/>
		<path fill="#262626" d="M552.3,241.6l16.6,20.4v-20.4h1.9v24.7H570l-16.7-20.4v20.4h-1.9v-24.7H552.3z"/>
	</g>
	<g>
		<g>
			<path fill="#262626" d="M331,150.3h8.5l-31,76.9h-6l-31.4-76.9h8.5l25.9,63.2L331,150.3z"/>
			<path fill="#262626" d="M365.9,192.8l38.8,34.4h-11.9l-36.6-32.6v32.6h-8.1v-76.9h30.5c2.9,0,5.6,0.6,8.2,1.7
				c2.6,1.1,4.8,2.6,6.7,4.6c1.9,1.9,3.4,4.2,4.5,6.8c1.1,2.6,1.7,5.3,1.7,8.2c0,2.9-0.6,5.7-1.7,8.3c-1.1,2.6-2.6,4.8-4.5,6.8
				c-1.9,1.9-4.1,3.5-6.7,4.6c-2.6,1.1-5.3,1.7-8.2,1.7H365.9z M356.2,184.7h22.4c1.8,0,3.5-0.3,5.1-1c1.6-0.7,3-1.6,4.2-2.9
				c1.2-1.2,2.1-2.6,2.8-4.2c0.7-1.6,1-3.3,1-5.2c0-1.8-0.3-3.5-1-5.1c-0.7-1.6-1.6-3-2.8-4.2c-1.2-1.2-2.6-2.1-4.2-2.8
				c-1.6-0.7-3.3-1-5.1-1h-22.4V184.7z"/>
			<path fill="#262626" d="M439.9,150.3h8.4l-26.7,76.8h-8.4L439.9,150.3z"/>
			<path fill="#262626" d="M471,150.3l33.8,76.9h-8.7l-10.4-23.8h-35.4l-10.4,23.8h-8.7l33.8-76.9H471z M482.1,195.4L468,163.2
				l-14.2,32.2H482.1z"/>
			<path fill="#262626" d="M531.2,192.8l38.8,34.4h-11.9l-36.6-32.6v32.6h-8.1v-76.9h30.5c2.9,0,5.6,0.6,8.2,1.7
				c2.6,1.1,4.8,2.6,6.7,4.6c1.9,1.9,3.4,4.2,4.5,6.8c1.1,2.6,1.7,5.3,1.7,8.2c0,2.9-0.6,5.7-1.7,8.3c-1.1,2.6-2.6,4.8-4.5,6.8
				c-1.9,1.9-4.1,3.5-6.7,4.6c-2.6,1.1-5.3,1.7-8.2,1.7H531.2z M521.5,184.7h22.4c1.8,0,3.5-0.3,5.1-1c1.6-0.7,3-1.6,4.2-2.9
				c1.2-1.2,2.1-2.6,2.8-4.2c0.7-1.6,1-3.3,1-5.2c0-1.8-0.3-3.5-1-5.1c-0.7-1.6-1.6-3-2.8-4.2c-1.2-1.2-2.6-2.1-4.2-2.8
				c-1.6-0.7-3.3-1-5.1-1h-22.4V184.7z"/>
		</g>
	</g>
</g>
</svg>
