<?xml version="1.0"?>
<svg width="587" height="409" xmlns="http://www.w3.org/2000/svg" xmlns:svg="http://www.w3.org/2000/svg">
 <g class="layer">
  <title>Layer 1</title>
  <g id="svg_1">
   <polygon fill="#262626" id="svg_2" points="28.7,171.8 24.3,219.9 15.4,217.1 15.4,175.7  "/>
   <polygon fill="#262626" id="svg_3" points="233.8,171.8 238.2,219.9 247.1,217.1 247.1,175.7  "/>
   <g id="svg_4">
    <polygon fill="#262626" id="svg_5" points="40.9,161.9 28.7,238 78.5,266.2 41.2,161.9   "/>
    <polygon fill="#262626" id="svg_6" points="41.2,161.9 78.5,266.2 78.6,266.3 131.3,254.2 131.3,150.3   "/>
    <polygon fill="#262626" id="svg_7" points="221.7,161.9 131.3,150.3 131.3,254.2 183.9,266.3 184.9,265.8 221.8,162.5   "/>
    <polygon fill="#262626" id="svg_8" points="221.8,162.5 184.9,265.8 233.8,238   "/>
   </g>
  </g>
  <g id="svg_9">
   <g id="svg_10">
    <path d="m293.3,266.3l-2.7,-6.1l-14.8,0l-2.7,6.1l-2,0l11.1,-24.7l2.1,0l11.1,24.7l-2.1,0zm-3.5,-7.8l-6.6,-15l-6.6,15l13.2,0z" fill="#262626" id="svg_11"/>
    <path d="m321.1,246.4c-1.8,-2.9 -4.7,-3.3 -7.5,-3.4c-2.9,0 -7.5,1.1 -7.5,5c0,3.1 3.4,3.9 7.6,4.7c4.8,0.9 9.7,1.8 9.7,7.1c0,5.6 -5.6,6.9 -9.8,6.9c-3.8,0 -8.2,-1.6 -10.1,-5.4l1.7,-0.8c1.5,3 5.4,4.5 8.4,4.5c3,0 7.9,-0.8 7.9,-5.2c0,-3.7 -4.1,-4.5 -8.1,-5.3c-4.5,-0.9 -9.1,-1.8 -9.1,-6.4c-0.1,-5.2 5.3,-6.8 9.4,-6.8c3.5,0 6.6,0.6 9,4.2l-1.6,0.9z" fill="#262626" id="svg_12"/>
    <path d="m350.3,246.4c-1.8,-2.9 -4.7,-3.3 -7.5,-3.4c-2.9,0 -7.5,1.1 -7.5,5c0,3.1 3.4,3.9 7.6,4.7c4.8,0.9 9.7,1.8 9.7,7.1c0,5.6 -5.6,6.9 -9.8,6.9c-3.8,0 -8.2,-1.6 -10.1,-5.4l1.7,-0.8c1.5,3 5.4,4.5 8.4,4.5c3,0 7.9,-0.8 7.9,-5.2c0,-3.7 -4.1,-4.5 -8.1,-5.3c-4.5,-0.9 -9.1,-1.8 -9.1,-6.4c-0.1,-5.2 5.3,-6.8 9.4,-6.8c3.5,0 6.6,0.6 9,4.2l-1.6,0.9z" fill="#262626" id="svg_13"/>
    <path d="m387.4,254c0,6.5 -4.2,12.7 -12.5,12.7c-8.3,0 -12.5,-6.3 -12.5,-12.8c0,-6.6 4.1,-12.7 12.5,-12.7c8.4,0 12.6,6.1 12.5,12.8zm-23,0c0,5.6 3.6,11 10.6,11c7.1,0 10.6,-5.4 10.6,-11c0,-5.7 -3.5,-11 -10.6,-11c-7.1,0 -10.6,5.1 -10.6,11z" fill="#262626" id="svg_14"/>
    <path d="m419.3,262.9c-2.5,2.5 -5.8,3.7 -9,3.7c-8.3,0 -12.7,-5.8 -12.7,-12.5c-0.1,-6.6 4.2,-12.8 12.7,-12.8c3.2,0 6.5,1.2 9,3.7l-1.3,1.1c-2.1,-2.1 -4.9,-3.1 -7.7,-3.1c-7.2,0 -10.9,5.1 -10.9,11c0.1,5.8 3.7,10.8 10.9,10.8c2.8,0 5.6,-1.1 7.7,-3.1l1.3,1.2z" fill="#262626" id="svg_15"/>
    <path d="m430.7,266.3l0,-24.7l1.9,0l0,24.7l-1.9,0z" fill="#262626" id="svg_16"/>
    <path d="m464.6,266.3l-2.7,-6.1l-14.8,0l-2.7,6.1l-2,0l11.1,-24.7l2.1,0l11.1,24.7l-2.1,0zm-3.4,-7.8l-6.6,-15l-6.6,15l13.2,0z" fill="#262626" id="svg_17"/>
    <path d="m479.7,243.3l-8.9,0l0,-1.7l19.8,0l0,1.7l-8.9,0l0,23l-1.9,0l0,-23l-0.1,0z" fill="#262626" id="svg_18"/>
    <path d="m501.1,266.3l0,-24.7l1.9,0l0,24.7l-1.9,0z" fill="#262626" id="svg_19"/>
    <path d="m540,254c0,6.5 -4.2,12.7 -12.5,12.7s-12.5,-6.3 -12.5,-12.8c0,-6.6 4.1,-12.7 12.5,-12.7c8.3,0 12.5,6.1 12.5,12.8zm-23.1,0c0,5.6 3.6,11 10.6,11c7.1,0 10.6,-5.4 10.6,-11c0,-5.7 -3.5,-11 -10.6,-11s-10.6,5.1 -10.6,11z" fill="#262626" id="svg_20"/>
    <path d="m552.3,241.6l16.6,20.4l0,-20.4l1.9,0l0,24.7l-0.8,0l-16.7,-20.4l0,20.4l-1.9,0l0,-24.7l0.9,0z" fill="#262626" id="svg_21"/>
   </g>
   <g id="svg_22">
    <g id="svg_23">
     <path d="m331,150.3l8.5,0l-31,76.9l-6,0l-31.4,-76.9l8.5,0l25.9,63.2l25.5,-63.2z" fill="#262626" id="svg_24"/>
     <path d="m365.9,192.8l38.8,34.4l-11.9,0l-36.6,-32.6l0,32.6l-8.1,0l0,-76.9l30.5,0c2.9,0 5.6,0.6 8.2,1.7c2.6,1.1 4.8,2.6 6.7,4.6c1.9,1.9 3.4,4.2 4.5,6.8c1.1,2.6 1.7,5.3 1.7,8.2c0,2.9 -0.6,5.7 -1.7,8.3c-1.1,2.6 -2.6,4.8 -4.5,6.8c-1.9,1.9 -4.1,3.5 -6.7,4.6c-2.6,1.1 -5.3,1.7 -8.2,1.7l-12.7,0l0,-0.2zm-9.7,-8.1l22.4,0c1.8,0 3.5,-0.3 5.1,-1c1.6,-0.7 3,-1.6 4.2,-2.9c1.2,-1.2 2.1,-2.6 2.8,-4.2c0.7,-1.6 1,-3.3 1,-5.2c0,-1.8 -0.3,-3.5 -1,-5.1c-0.7,-1.6 -1.6,-3 -2.8,-4.2c-1.2,-1.2 -2.6,-2.1 -4.2,-2.8c-1.6,-0.7 -3.3,-1 -5.1,-1l-22.4,0l0,26.4z" fill="#262626" id="svg_25"/>
     <path d="m439.9,150.3l8.4,0l-26.7,76.8l-8.4,0l26.7,-76.8z" fill="#262626" id="svg_26"/>
     <path d="m471,150.3l33.8,76.9l-8.7,0l-10.4,-23.8l-35.4,0l-10.4,23.8l-8.7,0l33.8,-76.9l6,0zm11.1,45.1l-14.1,-32.2l-14.2,32.2l28.3,0z" fill="#262626" id="svg_27"/>
     <path d="m531.2,192.8l38.8,34.4l-11.9,0l-36.6,-32.6l0,32.6l-8.1,0l0,-76.9l30.5,0c2.9,0 5.6,0.6 8.2,1.7c2.6,1.1 4.8,2.6 6.7,4.6c1.9,1.9 3.4,4.2 4.5,6.8c1.1,2.6 1.7,5.3 1.7,8.2c0,2.9 -0.6,5.7 -1.7,8.3c-1.1,2.6 -2.6,4.8 -4.5,6.8c-1.9,1.9 -4.1,3.5 -6.7,4.6c-2.6,1.1 -5.3,1.7 -8.2,1.7l-12.7,0l0,-0.2zm-9.7,-8.1l22.4,0c1.8,0 3.5,-0.3 5.1,-1c1.6,-0.7 3,-1.6 4.2,-2.9c1.2,-1.2 2.1,-2.6 2.8,-4.2c0.7,-1.6 1,-3.3 1,-5.2c0,-1.8 -0.3,-3.5 -1,-5.1c-0.7,-1.6 -1.6,-3 -2.8,-4.2c-1.2,-1.2 -2.6,-2.1 -4.2,-2.8c-1.6,-0.7 -3.3,-1 -5.1,-1l-22.4,0l0,26.4z" fill="#262626" id="svg_28"/>
    </g>
   </g>
  </g>
 </g>
</svg>