<?xml version="1.0" encoding="utf-8"?>
<!-- Generator: Adobe Illustrator 21.1.0, SVG Export Plug-In . SVG Version: 6.00 Build 0)  -->
<svg version="1.1" id="Layer_1" xmlns="http://www.w3.org/2000/svg" xmlns:xlink="http://www.w3.org/1999/xlink" x="0px" y="0px"
	 viewBox="0 0 587 409" enable-background="new 0 0 587 409" xml:space="preserve">
<g>
	<polygon fill="#DFAB1C" points="68.9,149.4 65.1,190.2 57.6,187.8 57.6,152.7 	"/>
	<polygon fill="#DFAB1C" points="242.8,149.4 246.6,190.2 254.1,187.8 254.1,152.7 	"/>
	<g>
		<polygon fill="#DFAB1C" points="79.2,141 68.9,205.5 111.1,229.5 79.5,141 		"/>
		<polygon fill="#DFAB1C" points="79.5,141 111.1,229.5 111.2,229.5 155.9,219.2 155.9,131.1 		"/>
		<polygon fill="#DFAB1C" points="232.5,141 155.9,131.1 155.9,219.2 200.5,229.5 201.3,229.1 232.6,141.5 		"/>
		<polygon fill="#DFAB1C" points="232.6,141.5 201.3,229.1 242.8,205.5 		"/>
	</g>
</g>
<g>
	<g>
		<path fill="#DFAB1C" d="M293.2,229.5l-2.3-5.1h-12.5l-2.3,5.1h-1.7l9.4-20.9h1.8l9.4,20.9H293.2z M290.3,222.9l-5.6-12.7
			l-5.6,12.7H290.3z"/>
		<path fill="#DFAB1C" d="M316.8,212.6c-1.5-2.5-4-2.8-6.3-2.8c-2.5,0-6.3,0.9-6.3,4.2c0,2.7,2.9,3.3,6.4,4c4,0.8,8.2,1.5,8.2,6
			c0,4.7-4.8,5.9-8.3,5.9c-3.3,0-7-1.3-8.6-4.5l1.4-0.7c1.3,2.5,4.6,3.8,7.2,3.8c2.6,0,6.7-0.7,6.7-4.4c0-3.1-3.4-3.8-6.9-4.5
			c-3.8-0.7-7.8-1.5-7.8-5.4c-0.1-4.4,4.5-5.8,8-5.8c3,0,5.6,0.5,7.7,3.6L316.8,212.6z"/>
		<path fill="#DFAB1C" d="M341.6,212.6c-1.5-2.5-4-2.8-6.3-2.8c-2.5,0-6.3,0.9-6.3,4.2c0,2.7,2.9,3.3,6.4,4c4,0.8,8.2,1.5,8.2,6
			c0,4.7-4.8,5.9-8.3,5.9c-3.3,0-7-1.3-8.6-4.5l1.4-0.7c1.3,2.5,4.6,3.8,7.2,3.8c2.6,0,6.7-0.7,6.7-4.4c0-3.1-3.4-3.8-6.9-4.5
			c-3.8-0.7-7.8-1.5-7.8-5.4c-0.1-4.4,4.5-5.8,8-5.8c3,0,5.6,0.5,7.7,3.6L341.6,212.6z"/>
		<path fill="#DFAB1C" d="M373.1,219.1c0,5.5-3.5,10.8-10.6,10.8c-7,0-10.6-5.3-10.6-10.9c0-5.6,3.5-10.8,10.6-10.8
			C369.6,208.2,373.1,213.4,373.1,219.1z M353.5,219.1c0,4.7,3,9.3,9,9.3c6,0,9-4.6,9-9.3c0-4.8-3-9.3-9-9.3
			C356.5,209.7,353.5,214.1,353.5,219.1z"/>
		<path fill="#DFAB1C" d="M400.1,226.6c-2.1,2.1-4.9,3.1-7.6,3.1c-7.1,0-10.7-4.9-10.8-10.6c-0.1-5.6,3.6-10.8,10.8-10.8
			c2.8,0,5.5,1,7.6,3.1l-1.1,1c-1.8-1.8-4.2-2.7-6.5-2.7c-6.1,0-9.2,4.3-9.2,9.3c0.1,4.9,3.2,9.2,9.2,9.2c2.4,0,4.8-0.9,6.6-2.7
			L400.1,226.6z"/>
		<path fill="#DFAB1C" d="M409.8,229.5v-20.9h1.6v20.9H409.8z"/>
		<path fill="#DFAB1C" d="M438.5,229.5l-2.3-5.1h-12.5l-2.3,5.1h-1.7l9.4-20.9h1.8l9.4,20.9H438.5z M435.6,222.9l-5.6-12.7
			l-5.6,12.7H435.6z"/>
		<path fill="#DFAB1C" d="M451.4,210h-7.6v-1.4h16.8v1.4H453v19.5h-1.6V210z"/>
		<path fill="#DFAB1C" d="M469.5,229.5v-20.9h1.6v20.9H469.5z"/>
		<path fill="#DFAB1C" d="M502.4,219.1c0,5.5-3.5,10.8-10.6,10.8s-10.6-5.3-10.6-10.9c0-5.6,3.5-10.8,10.6-10.8
			C498.9,208.2,502.5,213.4,502.4,219.1z M482.9,219.1c0,4.7,3,9.3,9,9.3c6,0,9-4.6,9-9.3c0-4.8-3-9.3-9-9.3
			S482.9,214.1,482.9,219.1z"/>
		<path fill="#DFAB1C" d="M512.9,208.6l14.1,17.3v-17.3h1.6v20.9h-0.6l-14.1-17.3v17.3h-1.6v-20.9H512.9z"/>
	</g>
	<g>
		<g>
			<path fill="#DFAB1C" d="M325.2,131.1h7.2l-26.3,65.2h-5.1l-26.6-65.2h7.2l22,53.6L325.2,131.1z"/>
			<path fill="#DFAB1C" d="M354.8,167.2l32.9,29.2h-10.1l-31-27.6v27.6h-6.8v-65.2h25.9c2.4,0,4.8,0.5,6.9,1.4
				c2.2,0.9,4.1,2.2,5.7,3.9c1.6,1.6,2.9,3.6,3.8,5.7c0.9,2.2,1.4,4.5,1.4,6.9c0,2.5-0.5,4.8-1.4,7c-0.9,2.2-2.2,4.1-3.8,5.7
				c-1.6,1.6-3.5,2.9-5.7,3.9c-2.2,0.9-4.5,1.4-6.9,1.4H354.8z M346.6,160.3h19c1.5,0,3-0.3,4.3-0.9c1.4-0.6,2.6-1.4,3.6-2.4
				c1-1,1.8-2.2,2.4-3.6c0.6-1.3,0.9-2.8,0.9-4.4c0-1.5-0.3-3-0.9-4.3c-0.6-1.4-1.4-2.6-2.4-3.6c-1-1-2.2-1.8-3.6-2.4
				c-1.4-0.6-2.8-0.9-4.3-0.9h-19V160.3z"/>
			<path fill="#DFAB1C" d="M417.6,131.1h7.1l-22.6,65.1H395L417.6,131.1z"/>
			<path fill="#DFAB1C" d="M444,131.1l28.6,65.2h-7.4l-8.8-20.2h-30l-8.8,20.2h-7.4l28.6-65.2H444z M453.4,169.4l-11.9-27.3
				l-12,27.3H453.4z"/>
			<path fill="#DFAB1C" d="M495,167.2l32.9,29.2h-10.1l-31-27.6v27.6h-6.8v-65.2h25.9c2.4,0,4.8,0.5,6.9,1.4
				c2.2,0.9,4.1,2.2,5.7,3.9c1.6,1.6,2.9,3.6,3.8,5.7c0.9,2.2,1.4,4.5,1.4,6.9c0,2.5-0.5,4.8-1.4,7c-0.9,2.2-2.2,4.1-3.8,5.7
				c-1.6,1.6-3.5,2.9-5.7,3.9c-2.2,0.9-4.5,1.4-6.9,1.4H495z M486.7,160.3h19c1.5,0,3-0.3,4.3-0.9c1.4-0.6,2.6-1.4,3.6-2.4
				c1-1,1.8-2.2,2.4-3.6c0.6-1.3,0.9-2.8,0.9-4.4c0-1.5-0.3-3-0.9-4.3c-0.6-1.4-1.4-2.6-2.4-3.6c-1-1-2.2-1.8-3.6-2.4
				c-1.4-0.6-2.8-0.9-4.3-0.9h-19V160.3z"/>
		</g>
	</g>
</g>
</svg>
