<svg xmlns="http://www.w3.org/2000/svg" xmlns:xlink="http://www.w3.org/1999/xlink" viewBox="0 0 676 510"><defs><style>.cls-1{fill:url(#radial-gradient);}.cls-2{fill:#262626;}.cls-3{fill:#29abe2;}.cls-4{fill:#fff;}</style><radialGradient id="radial-gradient" cx="317" cy="239" r="346.01" gradientTransform="translate(21 84.17) scale(1 0.71)" gradientUnits="userSpaceOnUse"><stop offset="0" stop-color="#fff"/><stop offset="0.45" stop-color="#fcfcfc"/><stop offset="0.76" stop-color="#f3f3f3"/><stop offset="1" stop-color="#e6e6e6"/></radialGradient></defs><title>VRARA logo (1)#262626</title><g id="Layer_2" data-name="Layer 2"><rect class="cls-1" width="676" height="510"/></g><g id="Layer_1" data-name="Layer 1"><polygon class="cls-2" points="115.92 185.37 112.14 226.18 104.64 223.83 104.64 188.65 115.92 185.37"/><polygon class="cls-2" points="289.81 185.37 293.59 226.18 301.09 223.83 301.09 188.65 289.81 185.37"/><polygon class="cls-2" points="126.22 177 115.92 241.5 158.13 265.46 126.5 176.96 126.22 177"/><polygon class="cls-2" points="126.5 176.96 158.13 265.46 158.25 265.53 202.87 255.23 202.87 167.14 126.5 176.96"/><polygon class="cls-2" points="279.51 177 202.87 167.14 202.87 255.23 247.48 265.53 248.32 265.06 279.6 177.54 279.51 177"/><polygon class="cls-2" points="279.6 177.54 248.32 265.06 289.81 241.5 279.6 177.54"/><path class="cls-2" d="M319.25,249.52l-2.3-5.15H304.44l-2.27,5.15h-1.74l9.4-20.95h1.77l9.4,20.95Zm-2.93-6.64-5.63-12.75-5.63,12.75Z" transform="translate(21 16)"/><path class="cls-2" d="M342.81,232.62c-1.53-2.45-4-2.81-6.34-2.84s-6.34.9-6.34,4.25c0,2.66,2.87,3.29,6.4,4,4,.78,8.23,1.5,8.23,6,0,4.73-4.79,5.87-8.29,5.87-3.26,0-7-1.35-8.59-4.55l1.44-.72c1.29,2.54,4.58,3.8,7.15,3.8s6.67-.72,6.67-4.43c0-3.14-3.44-3.83-6.88-4.49-3.83-.75-7.75-1.53-7.75-5.39-.09-4.43,4.52-5.8,8-5.8,3,0,5.6.48,7.66,3.56Z" transform="translate(21 16)"/><path class="cls-2" d="M367.63,232.62c-1.53-2.45-4-2.81-6.34-2.84s-6.34.9-6.34,4.25c0,2.66,2.87,3.29,6.4,4,4,.78,8.23,1.5,8.23,6,0,4.73-4.79,5.87-8.29,5.87-3.26,0-7-1.35-8.59-4.55l1.44-.72c1.29,2.54,4.58,3.8,7.15,3.8S368,247.67,368,244c0-3.14-3.44-3.83-6.88-4.49-3.83-.75-7.75-1.53-7.75-5.39-.09-4.43,4.52-5.8,8-5.8,3,0,5.6.48,7.66,3.56Z" transform="translate(21 16)"/><path class="cls-2" d="M399.09,239.08c0,5.51-3.53,10.8-10.56,10.8S378,244.56,378,239s3.5-10.77,10.56-10.77S399.12,233.43,399.09,239.08Zm-19.54,0c0,4.73,3,9.34,9,9.34s9-4.61,9-9.34-3-9.31-9-9.31S379.52,234.11,379.55,239.05Z" transform="translate(21 16)"/><path class="cls-2" d="M426.09,246.62a10.78,10.78,0,0,1-7.63,3.14c-7.06,0-10.74-4.94-10.77-10.59s3.59-10.83,10.77-10.83a10.78,10.78,0,0,1,7.63,3.14l-1.11,1a9.17,9.17,0,0,0-6.52-2.66c-6.1,0-9.25,4.31-9.22,9.34s3.17,9.16,9.22,9.16A9.36,9.36,0,0,0,425,245.6Z" transform="translate(21 16)"/><path class="cls-2" d="M435.8,249.52V228.58h1.59v20.95Z" transform="translate(21 16)"/><path class="cls-2" d="M464.54,249.52l-2.3-5.15H449.73l-2.27,5.15h-1.74l9.4-20.95h1.77l9.4,20.95Zm-2.93-6.64L456,230.13l-5.63,12.75Z" transform="translate(21 16)"/><path class="cls-2" d="M477.36,230h-7.57v-1.44h16.76V230H479v19.48h-1.62Z" transform="translate(21 16)"/><path class="cls-2" d="M495.5,249.52V228.58h1.59v20.95Z" transform="translate(21 16)"/><path class="cls-2" d="M528.43,239.08c0,5.51-3.53,10.8-10.56,10.8s-10.56-5.33-10.56-10.86,3.5-10.77,10.56-10.77S528.46,233.43,528.43,239.08Zm-19.54,0c0,4.73,3,9.34,9,9.34s9-4.61,9-9.34-3-9.31-9-9.31S508.86,234.11,508.89,239.05Z" transform="translate(21 16)"/><path class="cls-2" d="M538.86,228.58,553,245.9V228.58h1.59v20.95h-.63l-14.12-17.3v17.3h-1.62V228.58Z" transform="translate(21 16)"/><path class="cls-2" d="M351.23,151.14h7.2l-26.27,65.21h-5.11l-26.63-65.21h7.21l22,53.63Z" transform="translate(21 16)"/><path class="cls-2" d="M380.81,187.17l32.93,29.19H403.61l-31-27.64v27.64h-6.84V151.14H391.6a17.43,17.43,0,0,1,6.95,1.41,17.76,17.76,0,0,1,5.71,3.88,18.64,18.64,0,0,1,3.84,5.75,17.34,17.34,0,0,1,1.42,6.93,17.56,17.56,0,0,1-1.42,7,18.62,18.62,0,0,1-3.84,5.75,17.72,17.72,0,0,1-5.71,3.88,17.39,17.39,0,0,1-6.95,1.41Zm-8.24-6.84h19a11,11,0,0,0,4.33-.87,10.68,10.68,0,0,0,3.56-2.42,11.77,11.77,0,0,0,2.37-3.56,11.38,11.38,0,0,0,0-8.71A11.09,11.09,0,0,0,391.54,158h-19Z" transform="translate(21 16)"/><path class="cls-2" d="M443.62,151.14h7.11l-22.62,65.12H421Z" transform="translate(21 16)"/><path class="cls-2" d="M470,151.14l28.64,65.21h-7.39l-8.85-20.16h-30l-8.85,20.16h-7.39l28.64-65.21Zm9.39,38.22-11.95-27.27-12,27.27Z" transform="translate(21 16)"/><path class="cls-2" d="M521,187.17l32.93,29.19H543.78l-31-27.64v27.64H505.9V151.14h25.86a17.43,17.43,0,0,1,6.95,1.41,17.78,17.78,0,0,1,5.71,3.88,18.66,18.66,0,0,1,3.84,5.75,17.32,17.32,0,0,1,1.42,6.93,17.53,17.53,0,0,1-1.42,7,18.64,18.64,0,0,1-3.84,5.75,17.74,17.74,0,0,1-5.71,3.88,17.39,17.39,0,0,1-6.95,1.41Zm-8.24-6.84h19a11,11,0,0,0,4.33-.87A10.68,10.68,0,0,0,539.6,177a11.77,11.77,0,0,0,2.37-3.56,11.39,11.39,0,0,0,0-8.71A11.09,11.09,0,0,0,531.71,158h-19Z" transform="translate(21 16)"/><rect class="cls-3" x="21" y="391" width="640" height="105"/><polygon class="cls-4" points="201.21 424.2 198.87 449.49 194.22 448.03 194.22 426.24 201.21 424.2"/><polygon class="cls-4" points="308.94 424.2 311.28 449.49 315.93 448.03 315.93 426.24 308.94 424.2"/><polygon class="cls-4" points="207.59 419.02 201.21 458.98 227.36 473.83 207.76 419 207.59 419.02"/><polygon class="cls-4" points="207.76 419 227.36 473.83 227.43 473.87 255.07 467.49 255.07 412.91 207.76 419"/><polygon class="cls-4" points="302.56 419.02 255.07 412.91 255.07 467.49 282.71 473.87 283.23 473.57 302.61 419.35 302.56 419.02"/><polygon class="cls-4" points="302.61 419.35 283.23 473.57 308.94 458.98 302.61 419.35"/><path class="cls-4" d="M319.19,457.86l-1.43-3.19H310l-1.41,3.19h-1.08l5.82-13h1.09l5.82,13Zm-1.82-4.12-3.49-7.9-3.49,7.9Z" transform="translate(21 16)"/><path class="cls-4" d="M333.78,447.39c-.95-1.52-2.47-1.74-3.93-1.76s-3.93.56-3.93,2.63c0,1.65,1.78,2,4,2.45,2.5.48,5.1.93,5.1,3.73s-3,3.63-5.14,3.63a5.84,5.84,0,0,1-5.32-2.82l.89-.45a5.08,5.08,0,0,0,4.43,2.35c1.59,0,4.13-.45,4.13-2.74,0-1.95-2.13-2.37-4.26-2.78-2.37-.46-4.8-.95-4.8-3.34-.06-2.74,2.8-3.6,4.93-3.6,1.85,0,3.47.3,4.75,2.21Z" transform="translate(21 16)"/><path class="cls-4" d="M349.16,447.39c-.95-1.52-2.47-1.74-3.93-1.76s-3.93.56-3.93,2.63c0,1.65,1.78,2,4,2.45,2.5.48,5.1.93,5.1,3.73s-3,3.63-5.14,3.63a5.84,5.84,0,0,1-5.32-2.82l.89-.45a5.08,5.08,0,0,0,4.43,2.35c1.59,0,4.13-.45,4.13-2.74,0-1.95-2.13-2.37-4.26-2.78-2.37-.46-4.8-.95-4.8-3.34-.06-2.74,2.8-3.6,4.93-3.6,1.85,0,3.47.3,4.75,2.21Z" transform="translate(21 16)"/><path class="cls-4" d="M368.65,451.39c0,3.41-2.19,6.69-6.54,6.69s-6.54-3.3-6.54-6.73,2.17-6.67,6.54-6.67S368.67,447.89,368.65,451.39Zm-12.11,0c0,2.93,1.87,5.78,5.56,5.78s5.58-2.85,5.58-5.78-1.85-5.77-5.58-5.77S356.53,448.32,356.55,451.38Z" transform="translate(21 16)"/><path class="cls-4" d="M385.38,456.07a6.68,6.68,0,0,1-4.73,1.95,6.64,6.64,0,1,1,0-13.27,6.68,6.68,0,0,1,4.73,1.95l-.69.59a5.68,5.68,0,0,0-4-1.65,5.73,5.73,0,0,0,0,11.46,5.8,5.8,0,0,0,4.06-1.65Z" transform="translate(21 16)"/><path class="cls-4" d="M391.39,457.86v-13h1v13Z" transform="translate(21 16)"/><path class="cls-4" d="M409.2,457.86l-1.43-3.19H400l-1.41,3.19h-1.08l5.82-13h1.09l5.82,13Zm-1.82-4.12-3.49-7.9-3.49,7.9Z" transform="translate(21 16)"/><path class="cls-4" d="M417.14,445.8h-4.69v-.89h10.38v.89h-4.69v12.07h-1Z" transform="translate(21 16)"/><path class="cls-4" d="M428.38,457.86v-13h1v13Z" transform="translate(21 16)"/><path class="cls-4" d="M448.79,451.39c0,3.41-2.19,6.69-6.54,6.69s-6.54-3.3-6.54-6.73,2.17-6.67,6.54-6.67S448.8,447.89,448.79,451.39Zm-12.11,0c0,2.93,1.87,5.78,5.56,5.78s5.58-2.85,5.58-5.78-1.85-5.77-5.58-5.77S436.66,448.32,436.68,451.38Z" transform="translate(21 16)"/><path class="cls-4" d="M455.24,444.89,464,455.62V444.89h1v13h-.39l-8.75-10.72v10.72h-1v-13Z" transform="translate(21 16)"/><path class="cls-4" d="M339,396.91h4.46l-16.27,40.4H324l-16.5-40.4H312l13.62,33.23Z" transform="translate(21 16)"/><path class="cls-4" d="M357.33,419.23l20.4,18.08h-6.27l-19.23-17.12v17.12H348v-40.4h16a10.8,10.8,0,0,1,4.3.88,11,11,0,0,1,3.54,2.4,11.55,11.55,0,0,1,2.38,3.56,10.74,10.74,0,0,1,.88,4.29,10.88,10.88,0,0,1-.88,4.35,11.54,11.54,0,0,1-2.38,3.56,11,11,0,0,1-3.54,2.4,10.78,10.78,0,0,1-4.3.88Zm-5.1-4.24H364a6.82,6.82,0,0,0,2.68-.54,6.61,6.61,0,0,0,2.2-1.5,7.29,7.29,0,0,0,1.47-2.2,7,7,0,0,0,0-5.4,6.87,6.87,0,0,0-6.36-4.21H352.22Z" transform="translate(21 16)"/><path class="cls-4" d="M396.24,396.91h4.41l-14,40.35h-4.41Z" transform="translate(21 16)"/><path class="cls-4" d="M412.56,396.91l17.74,40.4h-4.58l-5.48-12.49H401.65l-5.48,12.49h-4.58l17.74-40.4Zm5.82,23.68-7.4-16.9-7.46,16.9Z" transform="translate(21 16)"/><path class="cls-4" d="M444.17,419.23l20.4,18.08h-6.27l-19.23-17.12v17.12h-4.24v-40.4h16a10.8,10.8,0,0,1,4.3.88,11,11,0,0,1,3.54,2.4,11.56,11.56,0,0,1,2.38,3.56,10.73,10.73,0,0,1,.88,4.29,10.86,10.86,0,0,1-.88,4.35,11.55,11.55,0,0,1-2.38,3.56,11,11,0,0,1-3.54,2.4,10.78,10.78,0,0,1-4.3.88Zm-5.1-4.24h11.75a6.82,6.82,0,0,0,2.68-.54,6.61,6.61,0,0,0,2.2-1.5,7.29,7.29,0,0,0,1.47-2.2,7.06,7.06,0,0,0,0-5.4,6.87,6.87,0,0,0-6.36-4.21H439.06Z" transform="translate(21 16)"/></g></svg>