<?xml version="1.0"?>
<svg width="670.1" height="452.39" xmlns="http://www.w3.org/2000/svg" xmlns:svg="http://www.w3.org/2000/svg" xmlns:se="http://svg-edit.googlecode.com" data-name="Layer 1">
 <defs>
  <style>.cls-1{fill:#dfab1c;}.cls-2{fill:#cc9c18;}.cls-3{fill:#dfab1c;}</style>
 </defs>
 <title>nextReality_logos</title>
 <g class="layer">
  <title>Layer 1</title>
  <g id="svg_24">
   <path class="cls-1" d="m178.362003,20.95172l-31.232227,0q-6.824605,0 -10.945122,2.575323a13.456061,13.456061 0 0 0 -5.691463,6.631456a16.552887,16.552887 0 0 0 -0.643831,9.103766a31.29661,31.29661 0 0 0 3.824354,10.037321l49.027707,80.671986l-48.821681,79.835006a32.977008,32.977008 0 0 0 -4.03038,10.45581a16.533572,16.533572 0 0 0 0.643831,9.103766a12.876614,12.876614 0 0 0 5.794476,6.522005c2.826417,1.648207 6.438307,2.478748 10.867862,2.478748l30.787984,0l65.86388,-108.710813l-65.44539,-108.704374z" fill="#dfab1c" id="svg_1"/>
   <path class="cls-2" d="m183.008248,129.662532l0.186711,0.309039l-48.821681,79.835006a32.977008,32.977008 0 0 0 -4.023942,10.45581a16.540011,16.540011 0 0 0 0.643831,9.103766a12.876614,12.876614 0 0 0 5.794476,6.522005c2.826417,1.648207 6.438307,2.478748 10.867862,2.478748l30.787984,0l65.86388,-108.704374l-61.29912,0l-0.000001,0z" fill="22626" id="svg_2"/>
   <path d="m489.823552,163.459418a80.523905,80.523905 0 0 0 29.435939,-62.322811l0,0a80.626918,80.626918 0 0 0 -80.659109,-80.684862l-77.903514,0l-31.592772,52.394942l109.496286,0a28.283482,28.283482 0 0 1 13.971126,52.884253a28.109648,28.109648 0 0 1 -13.971126,3.702026l-107.603424,0l0,0.03863l-48.821681,79.835006a32.977008,32.977008 0 0 0 -4.023942,10.442934a16.540011,16.540011 0 0 0 0.643831,9.103766a11.878676,11.878676 0 0 0 1.616015,2.903676q8.498565,6.071323 20.34505,6.097077l25.508572,0l33.968507,-56.01327l78.367072,0l0.83698,0l23.705846,38.629842q10.462249,17.441373 30.601273,17.447812l41.430505,0c-4.912428,-8.266786 -41.14722,-67.589346 -45.351434,-74.45902l0,-0.000001z" fill="#dfab1c" id="svg_3"/>
   <path d="m276.093289,130.551019l65.722237,-109.605737l-41.494888,0q-10.468687,0 -17.866302,4.313666t-12.734971,12.940997l-31.322363,52.678227l22.649964,38.604088l-23.210096,39.505451l31.895373,51.937822q10.462249,17.441373 30.601273,17.447812l25.508572,0l7.957747,-13.204968c-16.894117,-27.697596 -53.746986,-88.011656 -57.706545,-94.617359l-0.000001,0.000001z" fill="#dfab1c" id="svg_4"/>
  </g>
  <g id="svg_25">
   <path class="cls-3" d="m145.974304,282.638956l-10.834574,-14.23136l0,14.218345l-4.85441,0l0,-22.35241l4.555076,0l10.483183,13.769345l0,-13.769345l4.85441,0l0,22.365424l-4.203685,0l0,0.000001z" fill="#dfab1c" id="svg_5"/>
   <path class="cls-3" d="m155.52695,282.638956l0,-22.365424l16.873304,0l0,4.37938l-11.979851,0l0,4.555076l10.541748,0l0,4.37938l-10.541748,0l0,4.698236l12.136025,0l0,4.37938l-17.029478,-0.026029l0,0.000001z" fill="#dfab1c" id="svg_6"/>
   <path class="cls-3" d="m190.900371,282.638956l-5.017091,-7.67205l-5.049627,7.67205l-5.589729,0l7.808702,-11.374676l-7.489847,-10.990748l5.752411,0l4.698236,7.255586l4.730772,-7.255586l5.589729,0l-7.476832,10.932183l7.808702,11.439749l-5.765425,-0.006507l-0.000001,-0.000001z" fill="#000000" id="svg_7"/>
   <path class="cls-3" d="m210.46117,264.809086l0,17.82987l-4.919482,0l0,-17.82987l-6.793571,0l0,-4.555076l18.532653,0l0,4.555076l-6.8196,0z" fill="#dfab1c" id="svg_8"/>
   <path d="m234.616088,282.638956l-4.795845,-7.157977l-3.865308,0l0,7.157977l-4.919482,0l0,-22.365424l10.248922,0c5.270874,0 8.459427,2.778597 8.459427,7.379224l0,0.065073a6.943238,6.943238 0 0 1 -4.795845,6.93673l5.466092,7.990905l-5.797961,-0.006507l0,-0.000001zm0.097609,-14.732418c0,-2.10835 -1.470639,-3.195061 -3.865308,-3.195061l-4.886946,0l0,6.422658l4.984555,0c2.394669,0 3.767699,-1.30145 3.767699,-3.162524l0,-0.065073z" fill="#dfab1c" id="svg_9"/>
   <path d="m244.641526,282.638956l0,-22.365424l16.873304,0l0,4.37938l-11.986358,0l0,4.555076l10.541748,0l0,4.37938l-10.541748,0l0,4.698236l12.142532,0l0,4.37938l-17.029478,-0.026029l0,0.000001z" fill="#dfab1c" id="svg_10"/>
   <path d="m282.702442,282.638956l-2.043277,-5.017091l-9.461544,0l-2.043277,5.017091l-5.017091,0l9.585182,-22.528106l4.555076,0l9.585182,22.528106l-5.160251,0zm-6.774049,-16.613014l-2.973814,7.255586l5.941121,0l-2.967307,-7.255586z" fill="#dfab1c" id="svg_11"/>
   <path d="m291.298522,282.638956l0,-22.365424l4.912975,0l0,17.894942l11.15343,0l0,4.470482l-16.066405,0z" fill="#dfab1c" id="svg_12"/>
   <path d="m311.301814,282.638956l0,-22.365424l4.919482,0l0,22.365424l-4.919482,0z" fill="#dfab1c" id="svg_13"/>
   <path d="m331.942817,264.809086l0,17.82987l-4.919482,0l0,-17.82987l-6.806585,0l0,-4.555076l18.532653,0l0,4.555076l-6.806585,0l-0.000001,0z" fill="#dfab1c" id="svg_14"/>
   <path d="m353.735603,273.724021l0,8.914935l-4.919482,0l0,-8.817326l-8.602587,-13.548098l5.752411,0l5.335946,8.980008l5.427048,-8.980008l5.589729,0l-8.583065,13.45049l0,-0.000001z" fill="#dfab1c" id="svg_15"/>
   <path d="m360.542189,282.638956l0,-5.121207l5.205801,0l0,5.1147l-5.205801,0.006507z" fill="#dfab1c" id="svg_16"/>
   <path d="m384.378252,282.638956l0,-8.980008l-9.077616,0l0,8.980008l-4.906468,0l0,-22.365424l4.919482,0l0,8.849862l9.077616,0l0,-8.849862l4.919482,0l0,22.365424l-4.932497,0l0.000001,0z" fill="#dfab1c" id="svg_17"/>
   <path d="m411.311767,282.638956l-2.043277,-5.017091l-9.455037,0l-2.043277,5.017091l-5.017091,0l9.585182,-22.528106l4.555076,0l9.585182,22.528106l-5.166758,0zm-6.774049,-16.613014l-2.973814,7.255586l5.921599,0l-2.947785,-7.255586z" fill="#dfab1c" id="svg_18"/>
   <path d="m437.418862,282.638956l0,-14.602273l-6.292513,9.552646l-0.130145,0l-6.233947,-9.461544l0,14.504664l-4.821874,0l0,-22.358917l5.30341,0l5.856527,9.455037l5.856527,-9.455037l5.30341,0l0,22.365424l-4.841395,0z" fill="#dfab1c" id="svg_19"/>
   <path d="m458.287618,282.638956l-10.639357,0l0,-22.365424l10.411603,0c4.555076,0 7.379224,2.271031 7.379224,5.784947l0,0.065073a5.205801,5.205801 0 0 1 -2.941278,4.821874c2.602901,0.989102 4.184163,2.492277 4.184163,5.498628l0,0.065073c-0.019522,4.086554 -3.344727,6.129831 -8.394355,6.129831l0,-0.000002zm2.238495,-15.754057c0,-1.470639 -1.151784,-2.303567 -3.253626,-2.303567l-4.85441,0l0,4.730772l4.555076,0c2.173422,0 3.546452,-0.702783 3.546452,-2.362132l0.006507,-0.065073l0.000001,0zm1.249392,8.947471c0,-1.503175 -1.119247,-2.427205 -3.644061,-2.427205l-5.687338,0l0,4.919482l5.856527,0c2.173422,0 3.48138,-0.767856 3.48138,-2.427205l-0.006507,-0.065073l-0.000001,0.000001z" fill="#dfab1c" id="svg_20"/>
   <path d="m480.047868,282.996855c-6.006193,0 -9.682791,-3.357742 -9.682791,-9.936574l0,-12.78675l4.919482,0l0,12.656605c0,3.644061 1.822031,5.531164 4.821874,5.531164s4.821874,-1.822031 4.821874,-5.368483l0,-12.819286l4.919482,0l0,12.624069c0.013015,6.774049 -3.793728,10.099255 -9.799921,10.099255z" fill="#dfab1c" id="svg_21"/>
   <path d="m508.452022,282.638956l-4.795845,-7.157977l-3.865308,0l0,7.157977l-4.919482,0l0,-22.365424l10.222893,0c5.270874,0 8.459427,2.778597 8.459427,7.379224l0,0.065073a6.943238,6.943238 0 0 1 -4.795845,6.93673l5.466092,7.990905l-5.771932,-0.006507l0,-0.000001zm0.097609,-14.732418c0,-2.10835 -1.470639,-3.195061 -3.865308,-3.195061l-4.886946,0l0,6.422658l4.984555,0c2.394669,0 3.767699,-1.30145 3.767699,-3.162524l0,-0.065073z" fill="#dfab1c" id="svg_22"/>
   <path d="m528.748141,283.022884c-6.962759,0 -11.758604,-4.886946 -11.758604,-11.504821l0,-0.065073a11.478792,11.478792 0 0 1 11.713053,-11.569894c4.027989,0 6.455194,1.086711 8.78479,3.064916l-3.110466,3.748177c-1.724422,-1.438103 -3.253626,-2.271031 -5.856527,-2.271031c-3.578988,0 -6.422658,3.162524 -6.422658,6.962759l0,0.065073c0,4.093061 2.811133,7.092904 6.774049,7.092904a7.854253,7.854253 0 0 0 4.633163,-1.340494l0,-3.195061l-4.919482,0l0,-4.249235l9.695805,0l0,9.70882a14.517679,14.517679 0 0 1 -9.533124,3.552959l0.000001,0.000001z" fill="#dfab1c" id="svg_23"/>
  </g>
 </g>
</svg>