<?xml version="1.0"?>
<svg version="1" fill="#FFF" xmlns="http://www.w3.org/2000/svg" viewBox="0 -10 480 91"><g fill-rule="evenodd" clip-rule="evenodd">
  <path fill="#022626" d="M69 0H12C5 0 0 5 0 12v57c0 7 5 13 12 13h57c7 0 13-6 13-13V12c0-7-6-12-13-12zM56 70l3 9-15-6h-3C23 73 8 59 8 41c0-13 10-26 22-31l9-8 7 7c16 3 27 16 27 32 0 13-6 24-17 29z">
  </path>
  <path fill="#022626" d="M21 27L39 7l25 31-22 18 12 18-33-18 16-17-16-12z"></path>
  </g>
    <path fill="#022626" d="M103 81l39-63h-32V0h67l-38 63h55l-91 18z"></path>
    <path fill="#022626" d="M233 56h-20v-7c-3 6-10 8-17 8-16 0-27-14-27-29 0-16 11-30 27-30 7 0 13 3 17 7V0h20v56zm-44-28c0 7 4 12 12 12s13-5 13-12-5-13-13-13-12 6-12 13zM435 56h-20v-6c-3 5-10 8-16 8-17 0-28-14-28-30s11-29 27-29c7 0 13 2 17 7V0h20v56zm-44-28c0 7 5 13 13 13 7 0 12-6 12-13s-5-12-12-12c-8 0-13 5-13 12zM458 10c4-7 10-10 18-10h4v19c-3-2-5-2-8-2-11 0-14 7-14 16v23h-20V0h20v10zM323 50c4 5 11 7 17 7 16 0 28-13 28-29S356-2 340-2c-7 0-13 3-17 8V0h-20v81l20-5V50zm12-35c8 0 12 6 12 13s-4 12-12 12-13-5-13-12 5-13 13-13zM256 50c4 5 10 7 17 7 16 0 27-13 27-29S289-2 272-2c-6 0-13 3-16 8V0h-20v81l20-5V50zm12-35c7 0 12 6 12 13s-5 12-12 12c-8 0-13-5-13-12s5-13 13-13z">
    </path>
</svg>
